<svg xmlns="http://www.w3.org/2000/svg" width="285.5595703125" height="265.7373352050781" viewBox="-31.776697158813477 -40.695308685302734 285.5595703125 265.7373352050781"><title>Neo4j Graph Visualization</title><desc>Created using Neo4j (http://www.neo4j.com/)</desc><g class="layer relationships"><g class="relationship" transform="translate(162.17184359254773 196.04202906597922) rotate(243.8197703091039)"><path class="outline" fill="#A5ABB6" stroke="none" d="M 25 0.5 L 31.40382129309033 0.5 L 31.40382129309033 -0.5 L 25 -0.5 Z M 76.96632129309033 0.5 L 83.37014258618066 0.5 L 83.37014258618066 3.5 L 90.37014258618066 0 L 83.37014258618066 -3.5 L 83.37014258618066 -0.5 L 76.96632129309033 -0.5 Z"/><text text-anchor="middle" pointer-events="none" font-size="8px" fill="#000000" x="54.18507129309033" y="3" transform="rotate(180 54.18507129309033 0)" font-family="sans-serif">ACTED_IN</text></g><g class="relationship" transform="translate(224.78285352691265 91.47385422409856) rotate(539.4782085208994)"><path class="outline" fill="#A5ABB6" stroke="none" d="M 25 0.5 L 35.37157536096564 0.5 L 35.37157536096564 -0.5 L 25 -0.5 Z M 71.14501286096564 0.5 L 81.51658822193129 0.5 L 81.51658822193129 3.5 L 88.51658822193129 0 L 81.51658822193129 -3.5 L 81.51658822193129 -0.5 L 71.14501286096564 -0.5 Z"/><text text-anchor="middle" pointer-events="none" font-size="8px" fill="#000000" x="53.25829411096564" y="3" transform="rotate(180 53.25829411096564 0)" font-family="sans-serif">WROTE</text></g><g class="relationship" transform="translate(156.2699456230212 -11.69530877744052) rotate(473.35660667560865)"><path class="outline" fill="#A5ABB6" stroke="none" d="M 25 0.5 L 30.470755861206975 0.5 L 30.470755861206975 -0.5 L 25 -0.5 Z M 76.03325586120698 0.5 L 81.50401172241395 0.5 L 81.50401172241395 3.5 L 88.50401172241395 0 L 81.50401172241395 -3.5 L 81.50401172241395 -0.5 L 76.03325586120698 -0.5 Z"/><text text-anchor="middle" pointer-events="none" font-size="8px" fill="#000000" x="53.252005861206975" y="3" transform="rotate(180 53.252005861206975 0)" font-family="sans-serif">ACTED_IN</text></g><g class="relationship" transform="translate(35.58594607982166 5.4595655707050454) rotate(408.9942659799512)"><path class="outline" fill="#A5ABB6" stroke="none" d="M 25 0.5 L 36.28820932871871 0.5 L 36.28820932871871 -0.5 L 25 -0.5 Z M 72.06164682871871 0.5 L 83.34985615743742 0.5 L 83.34985615743742 3.5 L 90.34985615743742 0 L 83.34985615743742 -3.5 L 83.34985615743742 -0.5 L 72.06164682871871 -0.5 Z"/><text text-anchor="middle" pointer-events="none" font-size="8px" fill="#000000" x="54.17492807871871" y="3" font-family="sans-serif">WROTE</text></g><g class="relationship" transform="translate(-2.776697498505643 106.1870329362427) rotate(353.1603569207134)"><path class="outline" fill="#A5ABB6" stroke="none" d="M 25 0.5 L 30.487250219675282 0.5 L 30.487250219675282 -0.5 L 25 -0.5 Z M 77.37787521967527 0.5 L 82.86512543935056 0.5 L 82.86512543935056 3.5 L 89.86512543935056 0 L 82.86512543935056 -3.5 L 82.86512543935056 -0.5 L 77.37787521967527 -0.5 Z"/><text text-anchor="middle" pointer-events="none" font-size="8px" fill="#000000" x="53.93256271967528" y="3" font-family="sans-serif">DIRECTED</text></g><g class="relationship" transform="translate(54.45194591454656 192.3483074406433) rotate(299.6440738016109)"><path class="outline" fill="#A5ABB6" stroke="none" d="M 25 0.5 L 31.156895077216312 0.5 L 31.156895077216312 -0.5 L 25 -0.5 Z M 76.71939507721632 0.5 L 82.87629015443262 0.5 L 82.87629015443262 3.5 L 89.87629015443262 0 L 82.87629015443262 -3.5 L 82.87629015443262 -0.5 L 76.71939507721632 -0.5 Z"/><text text-anchor="middle" pointer-events="none" font-size="8px" fill="#000000" x="53.93814507721631" y="3" font-family="sans-serif">ACTED_IN</text></g></g><g class="layer nodes"><g class="node" transform="translate(111.27097263919026,92.50763315551231)"><circle class="outline" cx="0" cy="0" r="25" fill="#57C7E3" stroke="#23b3d7" stroke-width="2px"/><text text-anchor="middle" pointer-events="none" font-family="sans-serif" dy="1.5625" font-size="25" fill="#2A2C34"/><text text-anchor="middle" pointer-events="none" font-family="sans-serif" dy="1.5625" font-size="25" fill="#2A2C34"/><text text-anchor="middle" pointer-events="none" font-family="sans-serif" dy="1.5625" font-size="25" fill="#2A2C34"/><text text-anchor="middle" pointer-events="none" x="0" y="-5" font-size="10px" fill="#2A2C34" font-family="sans-serif"> Captain</text><text text-anchor="middle" pointer-events="none" x="0" y="5" font-size="10px" fill="#2A2C34" font-family="sans-serif"> America:</text><text text-anchor="middle" pointer-events="none" x="0" y="15" font-size="10px" fill="#2A2C34" font-family="sans-serif"> The Fi…</text></g><g class="node" transform="translate(162.17184359254773,196.04202906597922)"><circle class="outline" cx="0" cy="0" r="25" fill="#F79767" stroke="#f36924" stroke-width="2px"/><text text-anchor="middle" pointer-events="none" font-family="sans-serif" dy="1.5625" font-size="25" fill="#FFFFFF"/><text text-anchor="middle" pointer-events="none" font-family="sans-serif" dy="1.5625" font-size="25" fill="#FFFFFF"/><text text-anchor="middle" pointer-events="none" font-family="sans-serif" dy="1.5625" font-size="25" fill="#FFFFFF"/><text text-anchor="middle" pointer-events="none" x="0" y="-5" font-size="10px" fill="#FFFFFF" font-family="sans-serif"> Samuel</text><text text-anchor="middle" pointer-events="none" x="0" y="5" font-size="10px" fill="#FFFFFF" font-family="sans-serif"> L.</text><text text-anchor="middle" pointer-events="none" x="0" y="15" font-size="10px" fill="#FFFFFF" font-family="sans-serif"> Jackson</text></g><g class="node" transform="translate(224.78285352691265,91.47385422409856)"><circle class="outline" cx="0" cy="0" r="25" fill="#F79767" stroke="#f36924" stroke-width="2px"/><text text-anchor="middle" pointer-events="none" font-family="sans-serif" dy="1.5625" font-size="25" fill="#FFFFFF"/><text text-anchor="middle" pointer-events="none" font-family="sans-serif" dy="1.5625" font-size="25" fill="#FFFFFF"/><text text-anchor="middle" pointer-events="none" x="0" y="0" font-size="10px" fill="#FFFFFF" font-family="sans-serif"> Stephen</text><text text-anchor="middle" pointer-events="none" x="0" y="10" font-size="10px" fill="#FFFFFF" font-family="sans-serif"> McFeely</text></g><g class="node" transform="translate(156.2699456230212,-11.69530877744052)"><circle class="outline" cx="0" cy="0" r="25" fill="#F79767" stroke="#f36924" stroke-width="2px"/><text text-anchor="middle" pointer-events="none" font-family="sans-serif" dy="1.5625" font-size="25" fill="#FFFFFF"/><text text-anchor="middle" pointer-events="none" font-family="sans-serif" dy="1.5625" font-size="25" fill="#FFFFFF"/><text text-anchor="middle" pointer-events="none" x="0" y="0" font-size="10px" fill="#FFFFFF" font-family="sans-serif"> Chris</text><text text-anchor="middle" pointer-events="none" x="0" y="10" font-size="10px" fill="#FFFFFF" font-family="sans-serif"> Evans</text></g><g class="node" transform="translate(35.58594607982166,5.4595655707050454)"><circle class="outline" cx="0" cy="0" r="25" fill="#F79767" stroke="#f36924" stroke-width="2px"/><text text-anchor="middle" pointer-events="none" font-family="sans-serif" dy="1.5625" font-size="25" fill="#FFFFFF"/><text text-anchor="middle" pointer-events="none" x="0" y="5" font-size="10px" fill="#FFFFFF" font-family="sans-serif"> Christop…</text></g><g class="node" transform="translate(-2.776697498505643,106.1870329362427)"><circle class="outline" cx="0" cy="0" r="25" fill="#F79767" stroke="#f36924" stroke-width="2px"/><text text-anchor="middle" pointer-events="none" font-family="sans-serif" dy="1.5625" font-size="25" fill="#FFFFFF"/><text text-anchor="middle" pointer-events="none" font-family="sans-serif" dy="1.5625" font-size="25" fill="#FFFFFF"/><text text-anchor="middle" pointer-events="none" x="0" y="0" font-size="10px" fill="#FFFFFF" font-family="sans-serif"> Joe</text><text text-anchor="middle" pointer-events="none" x="0" y="10" font-size="10px" fill="#FFFFFF" font-family="sans-serif"> Johnston</text></g><g class="node" transform="translate(54.45194591454656,192.3483074406433)"><circle class="outline" cx="0" cy="0" r="25" fill="#F79767" stroke="#f36924" stroke-width="2px"/><text text-anchor="middle" pointer-events="none" font-family="sans-serif" dy="1.5625" font-size="25" fill="#FFFFFF"/><text text-anchor="middle" pointer-events="none" font-family="sans-serif" dy="1.5625" font-size="25" fill="#FFFFFF"/><text text-anchor="middle" pointer-events="none" x="0" y="0" font-size="10px" fill="#FFFFFF" font-family="sans-serif"> Hugo</text><text text-anchor="middle" pointer-events="none" x="0" y="10" font-size="10px" fill="#FFFFFF" font-family="sans-serif"> Weaving</text></g></g></svg>