<svg xmlns="http://www.w3.org/2000/svg" width="163.44015502929688" height="242.54898071289062" viewBox="-0.31693458557128906 -20.148754119873047 163.44015502929688 242.54898071289062"><title>Neo4j Graph Visualization</title><desc>Created using Neo4j (http://www.neo4j.com/)</desc><g class="layer relationships"><g class="relationship" transform="translate(134.12320720225944 8.851245115463659) rotate(520.8470874386709)"><path class="outline" fill="#A5ABB6" stroke="none" d="M 21.40063509461097,12.933012701892217 L 21.90063509461097,12.06698729810778 A 59.9217393315669 59.9217393315669 0 0 0 40.49558424287341,19.007163495509317 L 40.3059048269501,19.98900957263902 A 60.9217393315669 60.9217393315669 0 0 1 21.40063509461097,12.933012701892217 Z M 59.70954210088761,20.587364903474935 L 59.58072047782495,19.59569712168937 A 59.9217393315669 59.9217393315669 0 0 0 78.56796357214051,13.814453383979389 L 77.23089663568342,11.128889754602259 L 85.05712319676333,11.14222447047571 L 80.35071948741663,17.395204889815563 L 79.01365255095953,14.709641260438433 A 60.9217393315669 60.9217393315669 0 0 1 59.70954210088761,20.587364903474935"/><text text-anchor="middle" pointer-events="none" font-size="8px" fill="#000000" x="49.99914815039995" y="23.566269949877494" transform="rotate(180 49.99914815039995 20.566269949877494)" font-family="sans-serif">trek</text></g><g class="relationship" transform="translate(32.63341002032625 44.10023634840903) rotate(452.121584086659)"><path class="outline" fill="#A5ABB6" stroke="none" d="M 25 0.5 L 40.185991734348804 0.5 L 40.185991734348804 -0.5 L 25 -0.5 Z M 59.521929234348804 0.5 L 74.70792096869761 0.5 L 74.70792096869761 3.5 L 81.70792096869761 0 L 74.70792096869761 -3.5 L 74.70792096869761 -0.5 L 59.521929234348804 -0.5 Z"/><text text-anchor="middle" pointer-events="none" font-size="8px" fill="#000000" x="49.853960484348804" y="3" transform="rotate(180 49.853960484348804 0)" font-family="sans-serif">trek</text></g><g class="relationship" transform="translate(28.683065022106128 150.7350110321718) rotate(383.4009261094642)"><path class="outline" fill="#A5ABB6" stroke="none" d="M 25 0.5 L 40.54454532196214 0.5 L 40.54454532196214 -0.5 L 25 -0.5 Z M 59.88048282196214 0.5 L 75.42502814392428 0.5 L 75.42502814392428 3.5 L 82.42502814392428 0 L 75.42502814392428 -3.5 L 75.42502814392428 -0.5 L 59.88048282196214 -0.5 Z"/><text text-anchor="middle" pointer-events="none" font-size="8px" fill="#000000" x="50.21251407196214" y="3" font-family="sans-serif">trek</text></g><g class="relationship" transform="translate(134.12320720225944 8.851245115463659) rotate(520.8470874386709)"><path class="outline" fill="#A5ABB6" stroke="none" d="M 25 0.5 L 39.212550679119694 0.5 L 39.212550679119694 -0.5 L 25 -0.5 Z M 61.224269429119694 0.5 L 75.43682010823939 0.5 L 75.43682010823939 3.5 L 82.43682010823939 0 L 75.43682010823939 -3.5 L 75.43682010823939 -0.5 L 61.224269429119694 -0.5 Z"/><text text-anchor="middle" pointer-events="none" font-size="8px" fill="#000000" x="50.218410054119694" y="3" transform="rotate(180 50.218410054119694 0)" font-family="sans-serif">road</text></g><g class="relationship" transform="translate(134.12320720225944 8.851245115463659) rotate(520.8470874386709)"><path class="outline" fill="#A5ABB6" stroke="none" d="M 21.40063509461097,-12.933012701892217 L 21.90063509461097,-12.06698729810778 A 59.9217393315669 59.9217393315669 0 0 1 23.462610146667082,-12.93797730053545 L 22.9886770644415,-13.818538163606348 A 60.9217393315669 60.9217393315669 0 0 0 21.40063509461097,-12.933012701892217 Z M 77.37406546775159,-15.495635432086615 L 76.95528949406336,-14.587545852881192 A 59.9217393315669 59.9217393315669 0 0 1 78.56796357214051,-13.814453383979389 L 77.23089663568342,-11.128889754602259 L 85.05712319676333,-11.14222447047571 L 80.35071948741663,-17.395204889815563 L 79.01365255095953,-14.709641260438433 A 60.9217393315669 60.9217393315669 0 0 0 77.37406546775159,-15.495635432086615"/><text text-anchor="middle" pointer-events="none" font-size="8px" fill="#000000" x="49.99914815039995" y="-17.566269949877494" transform="rotate(180 49.99914815039995 -20.566269949877494)" font-family="sans-serif">PublicTrans…</text></g></g><g class="layer nodes"><g class="node" transform="translate(134.12320720225944,8.851245115463659)"><circle class="outline" cx="0" cy="0" r="25" fill="#F16667" stroke="#eb2728" stroke-width="2px"/><text text-anchor="middle" pointer-events="none" font-family="sans-serif" dy="1.5625" font-size="25" fill="#FFFFFF"/><text text-anchor="middle" pointer-events="none" x="0" y="5" font-size="10px" fill="#FFFFFF" font-family="sans-serif"> Darjeeling</text></g><g class="node" transform="translate(127.27219190226995,193.40022792755255)"><circle class="outline" cx="0" cy="0" r="25" fill="#8DCC93" stroke="#5db665" stroke-width="2px"/><text text-anchor="middle" pointer-events="none" font-family="sans-serif" dy="1.5625" font-size="25" fill="#2A2C34"/><text text-anchor="middle" pointer-events="none" x="0" y="5" font-size="10px" fill="#2A2C34" font-family="sans-serif"> Sandak…</text></g><g class="node" transform="translate(32.63341002032625,44.10023634840903)"><circle class="outline" cx="0" cy="0" r="25" fill="#F16667" stroke="#eb2728" stroke-width="2px"/><text text-anchor="middle" pointer-events="none" font-family="sans-serif" dy="1.5625" font-size="25" fill="#FFFFFF"/><text text-anchor="middle" pointer-events="none" x="0" y="5" font-size="10px" fill="#FFFFFF" font-family="sans-serif"> Rimbik</text></g><g class="node" transform="translate(28.683065022106128,150.7350110321718)"><circle class="outline" cx="0" cy="0" r="25" fill="#D9C8AE" stroke="#c0a378" stroke-width="2px"/><text text-anchor="middle" pointer-events="none" font-family="sans-serif" dy="1.5625" font-size="25" fill="#2A2C34"/><text text-anchor="middle" pointer-events="none" x="0" y="5" font-size="10px" fill="#2A2C34" font-family="sans-serif"> BhikeBh…</text></g></g></svg>