<svg xmlns="http://www.w3.org/2000/svg" width="423.84759521484375" height="435.74395751953125" viewBox="-107.41755676269531 -104.02423095703125 423.84759521484375 435.74395751953125"><title>Neo4j Graph Visualization</title><desc>Created using Neo4j (http://www.neo4j.com/)</desc><g class="layer relationships"><g class="relationship" transform="translate(287.4300258277176 62.554104517554066) rotate(457.7398198035112)"><path class="outline" fill="#A5ABB6" stroke="none" d="M 25 0.5 L 30.692417156236218 0.5 L 30.692417156236218 -0.5 L 25 -0.5 Z M 65.13772965623622 0.5 L 70.83014681247244 0.5 L 70.83014681247244 3.5 L 77.83014681247244 0 L 70.83014681247244 -3.5 L 70.83014681247244 -0.5 L 65.13772965623622 -0.5 Z"/><text text-anchor="middle" pointer-events="none" font-size="8px" fill="#000000" x="47.91507340623622" y="3" transform="rotate(180 47.91507340623622 0)" font-family="sans-serif">ORIGIN</text></g><g class="relationship" transform="translate(287.4300258277176 62.554104517554066) rotate(234.46819937271778)"><path class="outline" fill="#A5ABB6" stroke="none" d="M 25 0.5 L 25.84138039000257 0.5 L 25.84138039000257 -0.5 L 25 -0.5 Z M 69.17731789000257 0.5 L 70.01869828000514 0.5 L 70.01869828000514 3.5 L 77.01869828000514 0 L 70.01869828000514 -3.5 L 70.01869828000514 -0.5 L 69.17731789000257 -0.5 Z"/><text text-anchor="middle" pointer-events="none" font-size="8px" fill="#000000" x="47.50934914000257" y="3" transform="rotate(180 47.50934914000257 0)" font-family="sans-serif">DESTIN…</text></g><g class="relationship" transform="translate(109.01462009871642 -75.02422934529513) rotate(380.98512447464145)"><path class="outline" fill="#A5ABB6" stroke="none" d="M 25 0.5 L 30.9037108373536 0.5 L 30.9037108373536 -0.5 L 25 -0.5 Z M 65.3490233373536 0.5 L 71.2527341747072 0.5 L 71.2527341747072 3.5 L 78.2527341747072 0 L 71.2527341747072 -3.5 L 71.2527341747072 -0.5 L 65.3490233373536 -0.5 Z"/><text text-anchor="middle" pointer-events="none" font-size="8px" fill="#000000" x="48.1263670873536" y="3" font-family="sans-serif">ORIGIN</text></g><g class="relationship" transform="translate(109.01462009871642 -75.02422934529513) rotate(526.1428544944949)"><path class="outline" fill="#A5ABB6" stroke="none" d="M 25 0.5 L 26.644180730291033 0.5 L 26.644180730291033 -0.5 L 25 -0.5 Z M 69.98011823029103 0.5 L 71.62429896058207 0.5 L 71.62429896058207 3.5 L 78.62429896058207 0 L 71.62429896058207 -3.5 L 71.62429896058207 -0.5 L 69.98011823029103 -0.5 Z"/><text text-anchor="middle" pointer-events="none" font-size="8px" fill="#000000" x="48.31214948029103" y="3" transform="rotate(180 48.31214948029103 0)" font-family="sans-serif">DESTIN…</text></g><g class="relationship" transform="translate(-69.02821196864264 53.98139523253841) rotate(302.00505146631394)"><path class="outline" fill="#A5ABB6" stroke="none" d="M 25 0.5 L 26.6449520476275 0.5 L 26.6449520476275 -0.5 L 25 -0.5 Z M 69.9808895476275 0.5 L 71.625841595255 0.5 L 71.625841595255 3.5 L 78.625841595255 0 L 71.625841595255 -3.5 L 71.625841595255 -0.5 L 69.9808895476275 -0.5 Z"/><text text-anchor="middle" pointer-events="none" font-size="8px" fill="#000000" x="48.3129207976275" y="3" font-family="sans-serif">DESTIN…</text></g><g class="relationship" transform="translate(-69.02821196864264 53.98139523253841) rotate(447.2803296081373)"><path class="outline" fill="#A5ABB6" stroke="none" d="M 25 0.5 L 30.899914447323418 0.5 L 30.899914447323418 -0.5 L 25 -0.5 Z M 65.34522694732343 0.5 L 71.24514139464684 0.5 L 71.24514139464684 3.5 L 78.24514139464684 0 L 71.24514139464684 -3.5 L 71.24514139464684 -0.5 L 65.34522694732343 -0.5 Z"/><text text-anchor="middle" pointer-events="none" font-size="8px" fill="#000000" x="48.12257069732342" y="3" font-family="sans-serif">ORIGIN</text></g><g class="relationship" transform="translate(5.968588328581467 266.2980000798859) rotate(233.62661233592172)"><path class="outline" fill="#A5ABB6" stroke="none" d="M 25 0.5 L 30.277242596539494 0.5 L 30.277242596539494 -0.5 L 25 -0.5 Z M 64.7225550965395 0.5 L 69.99979769307899 0.5 L 69.99979769307899 3.5 L 76.99979769307899 0 L 69.99979769307899 -3.5 L 69.99979769307899 -0.5 L 64.7225550965395 -0.5 Z"/><text text-anchor="middle" pointer-events="none" font-size="8px" fill="#000000" x="47.499898846539494" y="3" transform="rotate(180 47.499898846539494 0)" font-family="sans-serif">ORIGIN</text></g><g class="relationship" transform="translate(5.968588328581467 266.2980000798859) rotate(370.4778596510435)"><path class="outline" fill="#A5ABB6" stroke="none" d="M 25 0.5 L 26.229692297518994 0.5 L 26.229692297518994 -0.5 L 25 -0.5 Z M 69.565629797519 0.5 L 70.79532209503799 0.5 L 70.79532209503799 3.5 L 77.79532209503799 0 L 70.79532209503799 -3.5 L 70.79532209503799 -0.5 L 69.565629797519 -0.5 Z"/><text text-anchor="middle" pointer-events="none" font-size="8px" fill="#000000" x="47.897661047518994" y="3" font-family="sans-serif">DESTIN…</text></g></g><g class="layer nodes"><g class="node" transform="translate(271.5612657551607,179.3108000497951)"><circle class="outline" cx="0" cy="0" r="40" fill="#4C8EDA" stroke="#2870c2" stroke-width="2px"/><text text-anchor="middle" pointer-events="none" font-family="sans-serif" dy="2.5" font-size="40" fill="#FFFFFF"/><text text-anchor="middle" pointer-events="none" x="0" y="5" font-size="10px" fill="#FFFFFF" font-family="sans-serif"> LAX</text></g><g class="node" transform="translate(121.79970334360475,287.7197344132725)"><circle class="outline" cx="0" cy="0" r="40" fill="#4C8EDA" stroke="#2870c2" stroke-width="2px"/><text text-anchor="middle" pointer-events="none" font-family="sans-serif" dy="2.5" font-size="40" fill="#FFFFFF"/><text text-anchor="middle" pointer-events="none" x="0" y="5" font-size="10px" fill="#FFFFFF" font-family="sans-serif"> DAY</text></g><g class="node" transform="translate(287.4300258277176,62.554104517554066)"><circle class="outline" cx="0" cy="0" r="25" fill="#ECB5C9" stroke="#da7298" stroke-width="2px"/><text text-anchor="middle" pointer-events="none" font-family="sans-serif" dy="1.5625" font-size="25" fill="#2A2C34"/><text text-anchor="middle" pointer-events="none" x="0" y="5" font-size="10px" fill="#2A2C34" font-family="sans-serif"> 11/29/20…</text></g><g class="node" transform="translate(219.4240568490581,-32.67490330264997)"><circle class="outline" cx="0" cy="0" r="40" fill="#4C8EDA" stroke="#2870c2" stroke-width="2px"/><text text-anchor="middle" pointer-events="none" font-family="sans-serif" dy="2.5" font-size="40" fill="#FFFFFF"/><text text-anchor="middle" pointer-events="none" x="0" y="5" font-size="10px" fill="#FFFFFF" font-family="sans-serif"> LAS</text></g><g class="node" transform="translate(109.01462009871642,-75.02422934529513)"><circle class="outline" cx="0" cy="0" r="25" fill="#ECB5C9" stroke="#da7298" stroke-width="2px"/><text text-anchor="middle" pointer-events="none" font-family="sans-serif" dy="1.5625" font-size="25" fill="#2A2C34"/><text text-anchor="middle" pointer-events="none" x="0" y="5" font-size="10px" fill="#2A2C34" font-family="sans-serif"> 11/29/20…</text></g><g class="node" transform="translate(-6.157224108059729,-46.61348127524886)"><circle class="outline" cx="0" cy="0" r="40" fill="#4C8EDA" stroke="#2870c2" stroke-width="2px"/><text text-anchor="middle" pointer-events="none" font-family="sans-serif" dy="2.5" font-size="40" fill="#FFFFFF"/><text text-anchor="middle" pointer-events="none" x="0" y="5" font-size="10px" fill="#FFFFFF" font-family="sans-serif"> DEN</text></g><g class="node" transform="translate(-69.02821196864264,53.98139523253841)"><circle class="outline" cx="0" cy="0" r="25" fill="#ECB5C9" stroke="#da7298" stroke-width="2px"/><text text-anchor="middle" pointer-events="none" font-family="sans-serif" dy="1.5625" font-size="25" fill="#2A2C34"/><text text-anchor="middle" pointer-events="none" x="0" y="5" font-size="10px" fill="#2A2C34" font-family="sans-serif"> 11/29/20…</text></g><g class="node" transform="translate(-63.41755333215306,172.0933504830752)"><circle class="outline" cx="0" cy="0" r="40" fill="#4C8EDA" stroke="#2870c2" stroke-width="2px"/><text text-anchor="middle" pointer-events="none" font-family="sans-serif" dy="2.5" font-size="40" fill="#FFFFFF"/><text text-anchor="middle" pointer-events="none" x="0" y="5" font-size="10px" fill="#FFFFFF" font-family="sans-serif"> MSP</text></g><g class="node" transform="translate(5.968588328581467,266.2980000798859)"><circle class="outline" cx="0" cy="0" r="25" fill="#ECB5C9" stroke="#da7298" stroke-width="2px"/><text text-anchor="middle" pointer-events="none" font-family="sans-serif" dy="1.5625" font-size="25" fill="#2A2C34"/><text text-anchor="middle" pointer-events="none" x="0" y="5" font-size="10px" fill="#2A2C34" font-family="sans-serif"> 11/23/20…</text></g></g></svg>