<svg xmlns="http://www.w3.org/2000/svg" width="301.9393310546875" height="306.4984436035156" viewBox="-49.35799026489258 -41.624271392822266 301.9393310546875 306.4984436035156"><title>Neo4j Graph Visualization</title><desc>Created using Neo4j (http://www.neo4j.com/)</desc><g class="layer relationships"><g class="relationship" transform="translate(96.39111516288241 -12.624270624089867) rotate(379.7038133339546)"><path class="outline" fill="#A5ABB6" stroke="none" d="M 25 0.5 L 31.361199546629443 0.5 L 31.361199546629443 -0.5 L 25 -0.5 Z M 65.80651204662945 0.5 L 72.16771159325889 0.5 L 72.16771159325889 3.5 L 79.16771159325889 0 L 72.16771159325889 -3.5 L 72.16771159325889 -0.5 L 65.80651204662945 -0.5 Z"/><text text-anchor="middle" pointer-events="none" font-size="8px" fill="#000000" x="48.58385579662944" y="3" font-family="sans-serif">ORIGIN</text></g><g class="relationship" transform="translate(96.39111516288241 -12.624270624089867) rotate(507.86819163921575)"><path class="outline" fill="#A5ABB6" stroke="none" d="M 25 0.5 L 27.408725481850603 0.5 L 27.408725481850603 -0.5 L 25 -0.5 Z M 70.74466298185061 0.5 L 73.1533884637012 0.5 L 73.1533884637012 3.5 L 80.1533884637012 0 L 73.1533884637012 -3.5 L 73.1533884637012 -0.5 L 70.74466298185061 -0.5 Z"/><text text-anchor="middle" pointer-events="none" font-size="8px" fill="#000000" x="49.0766942318506" y="3" transform="rotate(180 49.0766942318506 0)" font-family="sans-serif">DESTIN…</text></g><g class="relationship" transform="translate(-1.7756328379972273 169.78021231842536) rotate(268.268405911284)"><path class="outline" fill="#A5ABB6" stroke="none" d="M 25 0.5 L 31.053735362645725 0.5 L 31.053735362645725 -0.5 L 25 -0.5 Z M 65.49904786264572 0.5 L 71.55278322529145 0.5 L 71.55278322529145 3.5 L 78.55278322529145 0 L 71.55278322529145 -3.5 L 71.55278322529145 -0.5 L 65.49904786264572 -0.5 Z"/><text text-anchor="middle" pointer-events="none" font-size="8px" fill="#000000" x="48.276391612645725" y="3" transform="rotate(180 48.276391612645725 0)" font-family="sans-serif">ORIGIN</text></g><g class="relationship" transform="translate(-1.7756328379972273 169.78021231842536) rotate(385.01510987687146)"><path class="outline" fill="#A5ABB6" stroke="none" d="M 25 0.5 L 25.07920399645954 0.5 L 25.07920399645954 -0.5 L 25 -0.5 Z M 73.75107899645954 0.5 L 73.83028299291908 0.5 L 73.83028299291908 3.5 L 80.83028299291908 0 L 73.83028299291908 -3.5 L 73.83028299291908 -0.5 L 73.75107899645954 -0.5 Z"/><text text-anchor="middle" pointer-events="none" font-size="8px" fill="#000000" x="49.41514149645954" y="3" font-family="sans-serif">DESTINA…</text></g></g><g class="layer nodes"><g class="node" transform="translate(208.58133169046116,27.554066846108277)"><circle class="outline" cx="0" cy="0" r="40" fill="#4C8EDA" stroke="#2870c2" stroke-width="2px"/><text text-anchor="middle" pointer-events="none" font-family="sans-serif" dy="2.5" font-size="40" fill="#FFFFFF"/><text text-anchor="middle" pointer-events="none" x="0" y="5" font-size="10px" fill="#FFFFFF" font-family="sans-serif"> MSN</text></g><g class="node" transform="translate(107.72032300451649,220.87417421494695)"><circle class="outline" cx="0" cy="0" r="40" fill="#4C8EDA" stroke="#2870c2" stroke-width="2px"/><text text-anchor="middle" pointer-events="none" font-family="sans-serif" dy="2.5" font-size="40" fill="#FFFFFF"/><text text-anchor="middle" pointer-events="none" x="0" y="5" font-size="10px" fill="#FFFFFF" font-family="sans-serif"> GRR</text></g><g class="node" transform="translate(96.39111516288241,-12.624270624089867)"><circle class="outline" cx="0" cy="0" r="25" fill="#ECB5C9" stroke="#da7298" stroke-width="2px"/><text text-anchor="middle" pointer-events="none" font-family="sans-serif" dy="1.5625" font-size="25" fill="#2A2C34"/><text text-anchor="middle" pointer-events="none" x="0" y="5" font-size="10px" fill="#2A2C34" font-family="sans-serif"> 11/30/20…</text></g><g class="node" transform="translate(-5.3579918102157436,51.28156627275481)"><circle class="outline" cx="0" cy="0" r="40" fill="#4C8EDA" stroke="#2870c2" stroke-width="2px"/><text text-anchor="middle" pointer-events="none" font-family="sans-serif" dy="2.5" font-size="40" fill="#FFFFFF"/><text text-anchor="middle" pointer-events="none" x="0" y="5" font-size="10px" fill="#FFFFFF" font-family="sans-serif"> ORD</text></g><g class="node" transform="translate(-1.7756328379972273,169.78021231842536)"><circle class="outline" cx="0" cy="0" r="25" fill="#ECB5C9" stroke="#da7298" stroke-width="2px"/><text text-anchor="middle" pointer-events="none" font-family="sans-serif" dy="1.5625" font-size="25" fill="#2A2C34"/><text text-anchor="middle" pointer-events="none" x="0" y="5" font-size="10px" fill="#2A2C34" font-family="sans-serif"> 11/17/20…</text></g></g></svg>