<svg xmlns="http://www.w3.org/2000/svg" width="403.5986022949219" height="405.68585205078125" viewBox="-102.27519989013672 -114.63722229003906 403.5986022949219 405.68585205078125"><title>Neo4j Graph Visualization</title><desc>Created using Neo4j (http://www.neo4j.com/)</desc><g class="layer relationships"><g class="relationship" transform="translate(112.81102094536513 -85.63722323721345) rotate(452.9222651400761)"><path class="outline" fill="#A5ABB6" stroke="none" d="M 21.40063509461097,12.933012701892217 L 21.90063509461097,12.06698729810778 A 64.36491712207743 64.36491712207743 0 0 0 42.638999905704786,19.6646998718044 L 42.461199727259135,20.648766483647677 A 65.36491712207743 65.36491712207743 0 0 1 21.40063509461097,12.933012701892217 Z M 61.865558186286115,21.225300338527433 L 61.74649638871508,20.23241349282992 A 64.36491712207743 64.36491712207743 0 0 0 82.8993604426588,13.879354882530588 L 81.55625608975387,11.196805591798391 L 89.38249284651809,11.192536274207779 L 84.69016624653204,17.45608727017352 L 83.34706189362711,14.773537979441322 A 65.36491712207743 65.36491712207743 0 0 1 61.865558186286115,21.225300338527433"/><text text-anchor="middle" pointer-events="none" font-size="8px" fill="#000000" x="52.15670556164397" y="24.161639390630967" transform="rotate(180 52.15670556164397 21.161639390630967)" font-family="sans-serif">trek</text></g><g class="relationship" transform="translate(107.11454905382409 25.9545465325699) rotate(414.38731433043233)"><path class="outline" fill="#A5ABB6" stroke="none" d="M 25 0.5 L 49.847881750754844 0.5 L 49.847881750754844 -0.5 L 25 -0.5 Z M 69.18381925075485 0.5 L 94.03170100150969 0.5 L 94.03170100150969 3.5 L 101.03170100150969 0 L 94.03170100150969 -3.5 L 94.03170100150969 -0.5 L 69.18381925075485 -0.5 Z"/><text text-anchor="middle" pointer-events="none" font-size="8px" fill="#000000" x="59.515850500754844" y="3" font-family="sans-serif">trek</text></g><g class="relationship" transform="translate(180.5031843540548 128.4147723087396) rotate(478.3325194721455)"><path class="outline" fill="#A5ABB6" stroke="none" d="M 25 0.5 L 47.52535614117217 0.5 L 47.52535614117217 -0.5 L 25 -0.5 Z M 66.86129364117217 0.5 L 89.38664978234434 0.5 L 89.38664978234434 3.5 L 96.38664978234434 0 L 89.38664978234434 -3.5 L 89.38664978234434 -0.5 L 66.86129364117217 -0.5 Z"/><text text-anchor="middle" pointer-events="none" font-size="8px" fill="#000000" x="57.19332489117217" y="3" transform="rotate(180 57.19332489117217 0)" font-family="sans-serif">trek</text></g><g class="relationship" transform="translate(112.81102094536513 -85.63722323721345) rotate(452.9222651400761)"><path class="outline" fill="#A5ABB6" stroke="none" d="M 25 0.5 L 41.36267575964321 0.5 L 41.36267575964321 -0.5 L 25 -0.5 Z M 63.37439450964321 0.5 L 79.73707026928642 0.5 L 79.73707026928642 3.5 L 86.73707026928642 0 L 79.73707026928642 -3.5 L 79.73707026928642 -0.5 L 63.37439450964321 -0.5 Z"/><text text-anchor="middle" pointer-events="none" font-size="8px" fill="#000000" x="52.36853513464321" y="3" transform="rotate(180 52.36853513464321 0)" font-family="sans-serif">road</text></g><g class="relationship" transform="translate(112.81102094536513 -85.63722323721345) rotate(452.9222651400761)"><path class="outline" fill="#A5ABB6" stroke="none" d="M 21.40063509461097,-12.933012701892217 L 21.90063509461097,-12.06698729810778 A 64.36491712207743 64.36491712207743 0 0 1 22.91406660503016,-12.63993516265532 L 22.4298116965448,-13.51486212166838 A 65.36491712207743 65.36491712207743 0 0 0 21.40063509461097,-12.933012701892217 Z M 82.28515593791441,-15.293258064182922 L 81.85370029589785,-14.391123911757639 A 64.36491712207743 64.36491712207743 0 0 1 82.8993604426588,-13.879354882530588 L 81.55625608975387,-11.196805591798391 L 89.38249284651809,-11.192536274207779 L 84.69016624653204,-17.45608727017352 L 83.34706189362711,-14.773537979441322 A 65.36491712207743 65.36491712207743 0 0 0 82.28515593791441,-15.293258064182922"/><text text-anchor="middle" pointer-events="none" font-size="8px" fill="#000000" x="52.15670556164398" y="-18.161639390630967" transform="rotate(180 52.15670556164398 -21.161639390630967)" font-family="sans-serif">PublicTransport</text></g><g class="relationship" transform="translate(112.81102094536513 -85.63722323721345) rotate(389.949765306917)"><path class="outline" fill="#A5ABB6" stroke="none" d="M 24.018736134675446,-6.953439040707552 L 24.277555179777966,-5.987513214418485 A 107.88703367630133 107.88703367630133 0 0 1 39.573008959313285,-8.922110311589435 L 39.455962778458996,-9.915236784677049 A 108.88703367630133 108.88703367630133 0 0 0 24.018736134675446,-6.953439040707552 Z M 61.52849642035756,-10.263413075362564 L 61.44283220589044,-9.267089010432016 A 107.88703367630133 107.88703367630133 0 0 1 76.82323483684243,-6.816378632922952 L 76.13856143959536,-3.8955530066483948 L 83.75260686435757,-5.705611643725554 L 77.7361326998385,-10.710812801289027 L 77.05145930259144,-7.7899871750144705 A 108.88703367630133 108.88703367630133 0 0 0 61.52849642035756,-10.263413075362564"/><text text-anchor="middle" pointer-events="none" font-size="8px" fill="#000000" x="50.491269462058526" y="-7.150192555186322" font-family="sans-serif">road</text></g><g class="relationship" transform="translate(206.46949918041392 -31.67290835858211) rotate(414.6019780634797)"><path class="outline" fill="#A5ABB6" stroke="none" d="M 21.40063509461097,-12.933012701892217 L 21.90063509461097,-12.06698729810778 A 66.3767175969611 66.3767175969611 0 0 1 42.306297431700614,-19.71731968114389 L 42.113719417538974,-20.698601347364942 A 67.3767175969611 67.3767175969611 0 0 0 21.40063509461097,-12.933012701892217 Z M 64.18061929806944,-21.34356409906333 L 64.04568210122702,-20.352709945866053 A 66.3767175969611 66.3767175969611 0 0 1 84.86333116045037,-13.90723644632647 L 83.51763322545386,-11.225987284509138 L 91.34386219385689,-11.214149458304187 L 86.65759507377905,-17.48223532874958 L 85.31189713878254,-14.80098616693225 A 67.3767175969611 67.3767175969611 0 0 0 64.18061929806944,-21.34356409906333"/><text text-anchor="middle" pointer-events="none" font-size="8px" fill="#000000" x="53.13518159565953" y="-18.431234699187243" font-family="sans-serif">road</text></g><g class="relationship" transform="translate(272.32338905680643 60.99929225360642) rotate(503.71344441790654)"><path class="outline" fill="#A5ABB6" stroke="none" d="M 21.40063509461097,12.933012701892217 L 21.90063509461097,12.06698729810778 A 66.60736179091435 66.60736179091435 0 0 0 42.417733689517576,19.751844121355447 L 42.22576418409431,20.73324501242267 A 67.60736179091435 67.60736179091435 0 0 1 21.40063509461097,12.933012701892217 Z M 64.29282106711531,21.377009489985852 L 64.15839036554239,20.38608649273803 A 66.60736179091435 66.60736179091435 0 0 0 85.08859661766947,13.910376076856673 L 83.74260663289525,11.229273512446374 L 91.56883426542254,11.21658320645187 L 86.88324993070177,17.48517949607041 L 85.53725994592754,14.804076931660108 A 67.60736179091435 67.60736179091435 0 0 1 64.29282106711531,21.377009489985852"/><text text-anchor="middle" pointer-events="none" font-size="8px" fill="#000000" x="53.247418702746714" y="24.462143388730283" transform="rotate(180 53.247418702746714 21.462143388730283)" font-family="sans-serif">road</text></g><g class="relationship" transform="translate(112.81102094536513 -85.63722323721345) rotate(389.949765306917)"><path class="outline" fill="#A5ABB6" stroke="none" d="M 24.018736134675446,6.953439040707552 L 24.277555179777966,5.987513214418485 A 107.88703367630133 107.88703367630133 0 0 0 40.89650257900518,9.06981642207326 L 40.791723800215756,10.064311976369709 A 108.88703367630133 108.88703367630133 0 0 1 24.018736134675446,6.953439040707552 Z M 60.188698064526804,10.370283490987788 L 60.11533833031409,9.372977946334487 A 107.88703367630133 107.88703367630133 0 0 0 76.82323483684243,6.816378632922952 L 76.13856143959536,3.8955530066483948 L 83.75260686435757,5.705611643725554 L 77.7361326998385,10.710812801289027 L 77.05145930259144,7.7899871750144705 A 108.88703367630133 108.88703367630133 0 0 1 60.188698064526804,10.370283490987788"/><text text-anchor="middle" pointer-events="none" font-size="8px" fill="#000000" x="50.491269462058554" y="13.150192555186322" font-family="sans-serif">trek</text></g><g class="relationship" transform="translate(206.46949918041392 -31.67290835858211) rotate(414.6019780634797)"><path class="outline" fill="#A5ABB6" stroke="none" d="M 25 0.5 L 43.67583385450067 0.5 L 43.67583385450067 -0.5 L 25 -0.5 Z M 63.01177135450067 0.5 L 81.68760520900133 0.5 L 81.68760520900133 3.5 L 88.68760520900133 0 L 81.68760520900133 -3.5 L 81.68760520900133 -0.5 L 63.01177135450067 -0.5 Z"/><text text-anchor="middle" pointer-events="none" font-size="8px" fill="#000000" x="53.34380260450067" y="3" font-family="sans-serif">trek</text></g><g class="relationship" transform="translate(206.46949918041392 -31.67290835858211) rotate(414.6019780634797)"><path class="outline" fill="#A5ABB6" stroke="none" d="M 21.40063509461097,12.933012701892217 L 21.90063509461097,12.06698729810778 A 66.3767175969611 66.3767175969611 0 0 0 30.677551025151857,16.307856843115246 L 30.30977985851831,17.237773166766466 A 67.3767175969611 67.3767175969611 0 0 1 21.40063509461097,12.933012701892217 Z M 76.16653976806307,18.578056678059625 L 75.85370847222799,17.628247970821086 A 66.3767175969611 66.3767175969611 0 0 0 84.86333116045037,13.90723644632647 L 83.51763322545386,11.225987284509138 L 91.34386219385689,11.214149458304187 L 86.65759507377905,17.48223532874958 L 85.31189713878254,14.80098616693225 A 67.3767175969611 67.3767175969611 0 0 1 76.16653976806307,18.578056678059625"/><text text-anchor="middle" pointer-events="none" font-size="8px" fill="#000000" x="53.13518159565956" y="24.431234699187243" font-family="sans-serif">twowheeler</text></g><g class="relationship" transform="translate(272.32338905680643 60.99929225360642) rotate(503.71344441790654)"><path class="outline" fill="#A5ABB6" stroke="none" d="M 25 0.5 L 43.7877090677542 0.5 L 43.7877090677542 -0.5 L 25 -0.5 Z M 63.1236465677542 0.5 L 81.9113556355084 0.5 L 81.9113556355084 3.5 L 88.9113556355084 0 L 81.9113556355084 -3.5 L 81.9113556355084 -0.5 L 63.1236465677542 -0.5 Z"/><text text-anchor="middle" pointer-events="none" font-size="8px" fill="#000000" x="53.4556778177542" y="3" transform="rotate(180 53.4556778177542 0)" font-family="sans-serif">trek</text></g><g class="relationship" transform="translate(107.11454905382409 25.9545465325699) rotate(521.6988833976318)"><path class="outline" fill="#A5ABB6" stroke="none" d="M 24.018736134675446,-6.953439040707552 L 24.277555179777966,-5.987513214418485 A 138.60487281394376 138.60487281394376 0 0 1 35.211616389418325,-8.448184294313563 L 35.03168390138741,-9.431863256043982 A 139.60487281394376 139.60487281394376 0 0 0 24.018736134675446,-6.953439040707552 Z M 81.44256873216351,-10.07720650149028 L 81.29005662929086,-9.088904898497873 A 138.60487281394376 138.60487281394376 0 0 1 92.28830850026847,-6.933202580892053 L 91.59272316102788,-4.014956354845742 L 99.21348058424996,-5.796544493671697 L 93.21575561925594,-10.824197548953801 L 92.52017028001535,-7.90595132290749 A 139.60487281394376 139.60487281394376 0 0 0 81.44256873216351,-10.07720650149028"/><text text-anchor="middle" pointer-events="none" font-size="8px" fill="#000000" x="58.21707004142533" y="-8.196913786390752" transform="rotate(180 58.21707004142533 -11.196913786390752)" font-family="sans-serif">twowheeler</text></g><g class="relationship" transform="translate(-10.169312172395154 64.74501081064065) rotate(428.51926827864906)"><path class="outline" fill="#A5ABB6" stroke="none" d="M 24.018736134675446,-6.953439040707552 L 24.277555179777966,-5.987513214418485 A 112.67585451368059 112.67585451368059 0 0 1 28.77101933556124,-7.09315791371543 L 28.552079856273217,-8.06889635428702 A 113.67585451368059 113.67585451368059 0 0 0 24.018736134675446,-6.953439040707552 Z M 74.88958961708407,-8.784879578306729 L 74.70090066939392,-7.802842674204044 A 112.67585451368059 112.67585451368059 0 0 1 79.22637926738764,-6.836554011591666 L 78.53982134082307,-3.916170781008504 L 86.15503312650912,-5.721316054704836 L 80.14178983614042,-10.730398319035881 L 79.45523190957584,-7.810015088452719 A 113.67585451368059 113.67585451368059 0 0 0 74.88958961708407,-8.784879578306729"/><text text-anchor="middle" pointer-events="none" font-size="8px" fill="#000000" x="51.691686225063606" y="-7.313342000641384" font-family="sans-serif">twowheeler</text></g><g class="relationship" transform="translate(30.291405616624807 167.56191194000704) rotate(396.16901176319504)"><path class="outline" fill="#A5ABB6" stroke="none" d="M 24.018736134675446,6.953439040707552 L 24.277555179777966,5.987513214418485 A 121.0820544091941 121.0820544091941 0 0 0 30.849261820130337,7.553285461949997 L 30.644717594466734,8.532142785438808 A 122.0820544091941 122.0820544091941 0 0 1 24.018736134675446,6.953439040707552 Z M 77.01208026315453,9.223706003536478 L 76.83681958716343,8.239183939054868 A 121.0820544091941 121.0820544091941 0 0 0 83.45229927469026,6.870096870271323 L 82.76260824170859,3.950451981072522 L 90.37975252165107,5.74742527484723 L 84.37188731866581,10.76295672253639 L 83.68219628568414,7.84331183333759 A 122.0820544091941 122.0820544091941 0 0 1 77.01208026315453,9.223706003536478"/><text text-anchor="middle" pointer-events="none" font-size="8px" fill="#000000" x="53.80271792484431" y="13.599763256707291" font-family="sans-serif">twowheeler</text></g><g class="relationship" transform="translate(107.11454905382409 25.9545465325699) rotate(521.6988833976318)"><path class="outline" fill="#A5ABB6" stroke="none" d="M 24.018736134675446,6.953439040707552 L 24.277555179777966,5.987513214418485 A 138.60487281394376 138.60487281394376 0 0 0 48.604140247076444,10.228539503505715 L 48.52083151826672,11.225063289325249 A 139.60487281394376 139.60487281394376 0 0 1 24.018736134675446,6.953439040707552 Z M 67.90877708792205,11.494652627302287 L 67.85320853273113,10.496197753172254 A 138.60487281394376 138.60487281394376 0 0 0 92.28830850026847,6.933202580892053 L 91.59272316102788,4.014956354845742 L 99.21348058424996,5.796544493671697 L 93.21575561925594,10.824197548953801 L 92.52017028001535,7.90595132290749 A 139.60487281394376 139.60487281394376 0 0 1 67.90877708792205,11.494652627302287"/><text text-anchor="middle" pointer-events="none" font-size="8px" fill="#000000" x="58.21707004142536" y="14.196913786390752" transform="rotate(180 58.21707004142536 11.196913786390752)" font-family="sans-serif">trek</text></g><g class="relationship" transform="translate(-10.169312172395154 64.74501081064065) rotate(428.51926827864906)"><path class="outline" fill="#A5ABB6" stroke="none" d="M 24.018736134675446,6.953439040707552 L 24.277555179777966,5.987513214418485 A 112.67585451368059 112.67585451368059 0 0 0 42.09335172073088,9.254059288298123 L 41.99264815314435,10.24897576292065 A 113.67585451368059 113.67585451368059 0 0 1 24.018736134675446,6.953439040707552 Z M 61.388082777279045,10.548663982791197 L 61.31816581417231,9.551111168013989 A 112.67585451368059 112.67585451368059 0 0 0 79.22637926738764,6.836554011591666 L 78.53982134082307,3.916170781008504 L 86.15503312650912,5.721316054704836 L 80.14178983614042,10.730398319035881 L 79.45523190957584,7.810015088452719 A 113.67585451368059 113.67585451368059 0 0 1 61.388082777279045,10.548663982791197"/><text text-anchor="middle" pointer-events="none" font-size="8px" fill="#000000" x="51.69168622506363" y="13.313342000641384" font-family="sans-serif">trek</text></g><g class="relationship" transform="translate(30.291405616624807 167.56191194000704) rotate(396.16901176319504)"><path class="outline" fill="#A5ABB6" stroke="none" d="M 24.018736134675446,-6.953439040707552 L 24.277555179777966,-5.987513214418485 A 121.0820544091941 121.0820544091941 0 0 1 44.198883825585675,-9.573818553128064 L 44.104592288238216,-10.569363180949779 A 122.0820544091941 122.0820544091941 0 0 0 24.018736134675446,-6.953439040707552 Z M 63.497436384373486,-10.858604942811866 L 63.43287702270892,-9.860691074373591 A 121.0820544091941 121.0820544091941 0 0 1 83.45229927469026,-6.870096870271323 L 82.76260824170859,-3.950451981072522 L 90.37975252165107,-5.74742527484723 L 84.37188731866581,-10.76295672253639 L 83.68219628568414,-7.84331183333759 A 122.0820544091941 122.0820544091941 0 0 0 63.497436384373486,-10.858604942811866"/><text text-anchor="middle" pointer-events="none" font-size="8px" fill="#000000" x="53.80271792484428" y="-7.599763256707291" font-family="sans-serif">trek</text></g><g class="relationship" transform="translate(272.32338905680643 60.99929225360642) rotate(503.71344441790654)"><path class="outline" fill="#A5ABB6" stroke="none" d="M 21.40063509461097,-12.933012701892217 L 21.90063509461097,-12.06698729810778 A 66.60736179091435 66.60736179091435 0 0 1 30.78539468154714,-16.353126482559098 L 30.41878473555988,-17.28350121754668 A 67.60736179091435 67.60736179091435 0 0 0 21.40063509461097,-12.933012701892217 Z M 76.28082876806297,-18.621439256727655 L 75.96907998479915,-17.671274694068366 A 66.60736179091435 66.60736179091435 0 0 1 85.08859661766947,-13.910376076856673 L 83.74260663289525,-11.229273512446374 L 91.56883426542254,-11.21658320645187 L 86.88324993070177,-17.48517949607041 L 85.53725994592754,-14.804076931660108 A 67.60736179091435 67.60736179091435 0 0 0 76.28082876806297,-18.621439256727655"/><text text-anchor="middle" pointer-events="none" font-size="8px" fill="#000000" x="53.24741870274671" y="-18.462143388730283" transform="rotate(180 53.24741870274671 -21.462143388730283)" font-family="sans-serif">twowheeler</text></g><g class="relationship" transform="translate(-10.169312172395154 64.74501081064065) rotate(482.1069770277401)"><path class="outline" fill="#A5ABB6" stroke="none" d="M 24.018736134675446,-6.953439040707552 L 24.277555179777966,-5.987513214418485 A 129.07793881990173 129.07793881990173 0 0 1 32.83536999386887,-7.971096627354953 L 32.6428505418055,-8.95238978466179 A 130.07793881990173 130.07793881990173 0 0 0 24.018736134675446,-6.953439040707552 Z M 79.03265085320555,-9.622117142456773 L 78.86853949813698,-8.635675323018049 A 129.07793881990173 129.07793881990173 0 0 1 87.48004958551527,-6.899964643402216 L 86.78756876790304,-3.9809801766331474 L 94.4064268109118,-5.770673480101871 L 88.40335734233157,-10.79194393242764 L 87.71087652471934,-7.872959465658573 A 130.07793881990173 130.07793881990173 0 0 0 79.03265085320555,-9.622117142456773"/><text text-anchor="middle" pointer-events="none" font-size="8px" fill="#000000" x="55.81486838297506" y="-7.872235754301727" transform="rotate(180 55.81486838297506 -10.872235754301727)" font-family="sans-serif">twowheeler</text></g><g class="relationship" transform="translate(-73.27520229430239 165.31721177317755) rotate(411.0674896414108)"><path class="outline" fill="#A5ABB6" stroke="none" d="M 25 0.5 L 49.00781154717058 0.5 L 49.00781154717058 -0.5 L 25 -0.5 Z M 68.34374904717058 0.5 L 92.35156059434117 0.5 L 92.35156059434117 3.5 L 99.35156059434117 0 L 92.35156059434117 -3.5 L 92.35156059434117 -0.5 L 68.34374904717058 -0.5 Z"/><text text-anchor="middle" pointer-events="none" font-size="8px" fill="#000000" x="58.67578029717058" y="3" font-family="sans-serif">trek</text></g><g class="relationship" transform="translate(4.867883145657282 262.0486380015304) rotate(347.21230377304255)"><path class="outline" fill="#A5ABB6" stroke="none" d="M 25 0.5 L 47.34630745704137 0.5 L 47.34630745704137 -0.5 L 25 -0.5 Z M 66.68224495704138 0.5 L 89.02855241408274 0.5 L 89.02855241408274 3.5 L 96.02855241408274 0 L 89.02855241408274 -3.5 L 89.02855241408274 -0.5 L 66.68224495704138 -0.5 Z"/><text text-anchor="middle" pointer-events="none" font-size="8px" fill="#000000" x="57.01427620704137" y="3" font-family="sans-serif">trek</text></g><g class="relationship" transform="translate(-10.169312172395154 64.74501081064065) rotate(482.1069770277401)"><path class="outline" fill="#A5ABB6" stroke="none" d="M 24.018736134675446,6.953439040707552 L 24.277555179777966,5.987513214418485 A 129.07793881990173 129.07793881990173 0 0 0 46.20654234951549,9.874320130990014 L 46.1176128097012,10.870358050423022 A 130.07793881990173 130.07793881990173 0 0 1 24.018736134675446,6.953439040707552 Z M 65.50813669119637,11.150298128591942 L 65.44799772594814,10.152108114186433 A 129.07793881990173 129.07793881990173 0 0 0 87.48004958551527,6.899964643402216 L 86.78756876790304,3.9809801766331474 L 94.4064268109118,5.770673480101871 L 88.40335734233157,10.79194393242764 L 87.71087652471934,7.872959465658573 A 130.07793881990173 130.07793881990173 0 0 1 65.50813669119637,11.150298128591942"/><text text-anchor="middle" pointer-events="none" font-size="8px" fill="#000000" x="55.81486838297508" y="13.872235754301727" transform="rotate(180 55.81486838297508 10.872235754301727)" font-family="sans-serif">trek</text></g><g class="relationship" transform="translate(-73.27520229430239 165.31721177317755) rotate(361.24163294663043)"><path class="outline" fill="#A5ABB6" stroke="none" d="M 21.40063509461097,12.933012701892217 L 21.90063509461097,12.06698729810778 A 55.937972125607615 55.937972125607615 0 0 0 25.863752938920804,14.148276380379023 L 25.434601375031622,15.051508872715004 A 56.937972125607615 56.937972125607615 0 0 1 21.40063509461097,12.933012701892217 Z M 70.97518499649202,16.505111461902594 L 70.60450857351515,15.576349388253448 A 55.937972125607615 55.937972125607615 0 0 0 74.69228872892424,13.7520356288053 L 73.36102840816552,11.063588873079347 L 81.1872078790779,11.093836006322626 L 76.46730248993585,17.33663130310657 L 75.13604216917713,14.648184547380618 A 56.937972125607615 56.937972125607615 0 0 1 70.97518499649202,16.505111461902594"/><text text-anchor="middle" pointer-events="none" font-size="8px" fill="#000000" x="48.0691035325239" y="23.032526625238333" font-family="sans-serif">twowheeler</text></g><g class="relationship" transform="translate(-73.27520229430239 165.31721177317755) rotate(361.24163294663043)"><path class="outline" fill="#A5ABB6" stroke="none" d="M 25 0.5 L 37.289606046730434 0.5 L 37.289606046730434 -0.5 L 25 -0.5 Z M 59.301324796730434 0.5 L 71.59093084346087 0.5 L 71.59093084346087 3.5 L 78.59093084346087 0 L 71.59093084346087 -3.5 L 71.59093084346087 -0.5 L 59.301324796730434 -0.5 Z"/><text text-anchor="middle" pointer-events="none" font-size="8px" fill="#000000" x="48.295465421730434" y="3" font-family="sans-serif">road</text></g><g class="relationship" transform="translate(-73.27520229430239 165.31721177317755) rotate(361.24163294663043)"><path class="outline" fill="#A5ABB6" stroke="none" d="M 21.40063509461097,-12.933012701892217 L 21.90063509461097,-12.06698729810778 A 55.937972125607615 55.937972125607615 0 0 1 38.58050690476203,-18.41025735793461 L 38.37869204048159,-19.38968104590395 A 56.937972125607615 56.937972125607615 0 0 0 21.40063509461097,-12.933012701892217 Z M 57.78078570235644,-20.00897336365263 L 57.64184214238052,-19.018673062157568 A 55.937972125607615 55.937972125607615 0 0 1 74.69228872892424,-13.7520356288053 L 73.36102840816552,-11.063588873079347 L 81.1872078790779,-11.093836006322626 L 76.46730248993585,-17.33663130310657 L 75.13604216917713,-14.648184547380618 A 56.937972125607615 56.937972125607615 0 0 0 57.78078570235644,-20.00897336365263"/><text text-anchor="middle" pointer-events="none" font-size="8px" fill="#000000" x="48.069103532523876" y="-17.032526625238333" font-family="sans-serif">trek</text></g><g class="relationship" transform="translate(107.11454905382409 25.9545465325699) rotate(329.88558341144403)"><path class="outline" fill="#A5ABB6" stroke="none" d="M 25 0.5 L 44.26096488081216 0.5 L 44.26096488081216 -0.5 L 25 -0.5 Z M 63.59690238081216 0.5 L 82.85786726162432 0.5 L 82.85786726162432 3.5 L 89.85786726162432 0 L 82.85786726162432 -3.5 L 82.85786726162432 -0.5 L 63.59690238081216 -0.5 Z"/><text text-anchor="middle" pointer-events="none" font-size="8px" fill="#000000" x="53.92893363081216" y="3" font-family="sans-serif">trek</text></g></g><g class="layer nodes"><g class="node" transform="translate(112.81102094536513,-85.63722323721345)"><circle class="outline" cx="0" cy="0" r="25" fill="#F16667" stroke="#eb2728" stroke-width="2px"/><text text-anchor="middle" pointer-events="none" font-family="sans-serif" dy="1.5625" font-size="25" fill="#FFFFFF"/><text text-anchor="middle" pointer-events="none" x="0" y="5" font-size="10px" fill="#FFFFFF" font-family="sans-serif"> Darjeeling</text></g><g class="node" transform="translate(122.89455317238256,235.26028863373836)"><circle class="outline" cx="0" cy="0" r="25" fill="#8DCC93" stroke="#5db665" stroke-width="2px"/><text text-anchor="middle" pointer-events="none" font-family="sans-serif" dy="1.5625" font-size="25" fill="#2A2C34"/><text text-anchor="middle" pointer-events="none" x="0" y="5" font-size="10px" fill="#2A2C34" font-family="sans-serif"> Sandak…</text></g><g class="node" transform="translate(107.11454905382409,25.9545465325699)"><circle class="outline" cx="0" cy="0" r="25" fill="#F16667" stroke="#eb2728" stroke-width="2px"/><text text-anchor="middle" pointer-events="none" font-family="sans-serif" dy="1.5625" font-size="25" fill="#FFFFFF"/><text text-anchor="middle" pointer-events="none" x="0" y="5" font-size="10px" fill="#FFFFFF" font-family="sans-serif"> Rimbik</text></g><g class="node" transform="translate(180.5031843540548,128.4147723087396)"><circle class="outline" cx="0" cy="0" r="25" fill="#D9C8AE" stroke="#c0a378" stroke-width="2px"/><text text-anchor="middle" pointer-events="none" font-family="sans-serif" dy="1.5625" font-size="25" fill="#2A2C34"/><text text-anchor="middle" pointer-events="none" x="0" y="5" font-size="10px" fill="#2A2C34" font-family="sans-serif"> BhikeBh…</text></g><g class="node" transform="translate(206.46949918041392,-31.67290835858211)"><circle class="outline" cx="0" cy="0" r="25" fill="#D9C8AE" stroke="#c0a378" stroke-width="2px"/><text text-anchor="middle" pointer-events="none" font-family="sans-serif" dy="1.5625" font-size="25" fill="#2A2C34"/><text text-anchor="middle" pointer-events="none" x="0" y="5" font-size="10px" fill="#2A2C34" font-family="sans-serif"> Tumbling</text></g><g class="node" transform="translate(272.32338905680643,60.99929225360642)"><circle class="outline" cx="0" cy="0" r="25" fill="#D9C8AE" stroke="#c0a378" stroke-width="2px"/><text text-anchor="middle" pointer-events="none" font-family="sans-serif" dy="1.5625" font-size="25" fill="#2A2C34"/><text text-anchor="middle" pointer-events="none" x="0" y="5" font-size="10px" fill="#2A2C34" font-family="sans-serif"> Gairibus</text></g><g class="node" transform="translate(-10.169312172395154,64.74501081064065)"><circle class="outline" cx="0" cy="0" r="25" fill="#D9C8AE" stroke="#c0a378" stroke-width="2px"/><text text-anchor="middle" pointer-events="none" font-family="sans-serif" dy="1.5625" font-size="25" fill="#2A2C34"/><text text-anchor="middle" pointer-events="none" x="0" y="5" font-size="10px" fill="#2A2C34" font-family="sans-serif"> Sirikhola</text></g><g class="node" transform="translate(30.291405616624807,167.56191194000704)"><circle class="outline" cx="0" cy="0" r="25" fill="#D9C8AE" stroke="#c0a378" stroke-width="2px"/><text text-anchor="middle" pointer-events="none" font-family="sans-serif" dy="1.5625" font-size="25" fill="#2A2C34"/><text text-anchor="middle" pointer-events="none" x="0" y="5" font-size="10px" fill="#2A2C34" font-family="sans-serif"> Gurdum</text></g><g class="node" transform="translate(-73.27520229430239,165.31721177317755)"><circle class="outline" cx="0" cy="0" r="25" fill="#D9C8AE" stroke="#c0a378" stroke-width="2px"/><text text-anchor="middle" pointer-events="none" font-family="sans-serif" dy="1.5625" font-size="25" fill="#2A2C34"/><text text-anchor="middle" pointer-events="none" x="0" y="5" font-size="10px" fill="#2A2C34" font-family="sans-serif"> Rammam</text></g><g class="node" transform="translate(4.867883145657282,262.0486380015304)"><circle class="outline" cx="0" cy="0" r="25" fill="#8DCC93" stroke="#5db665" stroke-width="2px"/><text text-anchor="middle" pointer-events="none" font-family="sans-serif" dy="1.5625" font-size="25" fill="#2A2C34"/><text text-anchor="middle" pointer-events="none" x="0" y="5" font-size="10px" fill="#2A2C34" font-family="sans-serif"> Sabargr…</text></g></g></svg>