<svg xmlns="http://www.w3.org/2000/svg" width="389.06427001953125" height="389.5356750488281" viewBox="-83.56805419921875 -89.62692260742188 389.06427001953125 389.5356750488281"><title>Neo4j Graph Visualization</title><desc>Created using Neo4j (http://www.neo4j.com/)</desc><g class="layer relationships"><g class="relationship" transform="translate(201.2651336079302 -11.98649441444389) rotate(419.54598207848875)"><path class="outline" fill="#A5ABB6" stroke="none" d="M 25 0.5 L 26.749487176350584 0.5 L 26.749487176350584 -0.5 L 25 -0.5 Z M 70.08542467635058 0.5 L 71.83491185270117 0.5 L 71.83491185270117 3.5 L 78.83491185270117 0 L 71.83491185270117 -3.5 L 71.83491185270117 -0.5 L 70.08542467635058 -0.5 Z"/><text text-anchor="middle" pointer-events="none" font-size="8px" fill="#000000" x="48.417455926350584" y="3" font-family="sans-serif">DESTIN…</text></g><g class="relationship" transform="translate(201.2651336079302 -11.98649441444389) rotate(196.4109224302893)"><path class="outline" fill="#A5ABB6" stroke="none" d="M 25 0.5 L 31.312800801436566 0.5 L 31.312800801436566 -0.5 L 25 -0.5 Z M 65.75811330143657 0.5 L 72.07091410287313 0.5 L 72.07091410287313 3.5 L 79.07091410287313 0 L 72.07091410287313 -3.5 L 72.07091410287313 -0.5 L 65.75811330143657 -0.5 Z"/><text text-anchor="middle" pointer-events="none" font-size="8px" fill="#000000" x="48.535457051436566" y="3" transform="rotate(180 48.535457051436566 0)" font-family="sans-serif">ORIGIN</text></g><g class="relationship" transform="translate(-16.713931931798584 13.348178558949474) rotate(330.38675140448015)"><path class="outline" fill="#A5ABB6" stroke="none" d="M 25 0.5 L 27.006168022871343 0.5 L 27.006168022871343 -0.5 L 25 -0.5 Z M 70.34210552287135 0.5 L 72.34827354574269 0.5 L 72.34827354574269 3.5 L 79.34827354574269 0 L 72.34827354574269 -3.5 L 72.34827354574269 -0.5 L 70.34210552287135 -0.5 Z"/><text text-anchor="middle" pointer-events="none" font-size="8px" fill="#000000" x="48.67413677287134" y="3" font-family="sans-serif">DESTIN…</text></g><g class="relationship" transform="translate(-16.713931931798584 13.348178558949474) rotate(461.00544750673953)"><path class="outline" fill="#A5ABB6" stroke="none" d="M 25 0.5 L 31.635487400034684 0.5 L 31.635487400034684 -0.5 L 25 -0.5 Z M 66.08079990003469 0.5 L 72.71628730006937 0.5 L 72.71628730006937 3.5 L 79.71628730006937 0 L 72.71628730006937 -3.5 L 72.71628730006937 -0.5 L 66.08079990003469 -0.5 Z"/><text text-anchor="middle" pointer-events="none" font-size="8px" fill="#000000" x="48.858143650034684" y="3" transform="rotate(180 48.858143650034684 0)" font-family="sans-serif">ORIGIN</text></g><g class="relationship" transform="translate(20.84675618866346 233.56628365055892) rotate(239.5340518154378)"><path class="outline" fill="#A5ABB6" stroke="none" d="M 25 0.5 L 31.35494198990694 0.5 L 31.35494198990694 -0.5 L 25 -0.5 Z M 65.80025448990693 0.5 L 72.15519647981388 0.5 L 72.15519647981388 3.5 L 79.15519647981388 0 L 72.15519647981388 -3.5 L 72.15519647981388 -0.5 L 65.80025448990693 -0.5 Z"/><text text-anchor="middle" pointer-events="none" font-size="8px" fill="#000000" x="48.57759823990694" y="3" transform="rotate(180 48.57759823990694 0)" font-family="sans-serif">ORIGIN</text></g><g class="relationship" transform="translate(20.84675618866346 233.56628365055892) rotate(370.776227436423)"><path class="outline" fill="#A5ABB6" stroke="none" d="M 25 0.5 L 27.079675631437745 0.5 L 27.079675631437745 -0.5 L 25 -0.5 Z M 70.41561313143774 0.5 L 72.49528876287549 0.5 L 72.49528876287549 3.5 L 79.49528876287549 0 L 72.49528876287549 -3.5 L 72.49528876287549 -0.5 L 70.41561313143774 -0.5 Z"/><text text-anchor="middle" pointer-events="none" font-size="8px" fill="#000000" x="48.747644381437745" y="3" font-family="sans-serif">DESTIN…</text></g></g><g class="layer nodes"><g class="node" transform="translate(261.4962175796588,90.4535016741437)"><circle class="outline" cx="0" cy="0" r="40" fill="#4C8EDA" stroke="#2870c2" stroke-width="2px"/><text text-anchor="middle" pointer-events="none" font-family="sans-serif" dy="2.5" font-size="40" fill="#FFFFFF"/><text text-anchor="middle" pointer-events="none" x="0" y="5" font-size="10px" fill="#FFFFFF" font-family="sans-serif"> LAX</text></g><g class="node" transform="translate(138.23473507416324,255.9087644819361)"><circle class="outline" cx="0" cy="0" r="40" fill="#4C8EDA" stroke="#2870c2" stroke-width="2px"/><text text-anchor="middle" pointer-events="none" font-family="sans-serif" dy="2.5" font-size="40" fill="#FFFFFF"/><text text-anchor="middle" pointer-events="none" x="0" y="5" font-size="10px" fill="#FFFFFF" font-family="sans-serif"> DAY</text></g><g class="node" transform="translate(201.2651336079302,-11.98649441444389)"><circle class="outline" cx="0" cy="0" r="25" fill="#ECB5C9" stroke="#da7298" stroke-width="2px"/><text text-anchor="middle" pointer-events="none" font-family="sans-serif" dy="1.5625" font-size="25" fill="#2A2C34"/><text text-anchor="middle" pointer-events="none" x="0" y="5" font-size="10px" fill="#2A2C34" font-family="sans-serif"> 11/30/20…</text></g><g class="node" transform="translate(87.04515262725573,-45.62692440676343)"><circle class="outline" cx="0" cy="0" r="40" fill="#4C8EDA" stroke="#2870c2" stroke-width="2px"/><text text-anchor="middle" pointer-events="none" font-family="sans-serif" dy="2.5" font-size="40" fill="#FFFFFF"/><text text-anchor="middle" pointer-events="none" x="0" y="5" font-size="10px" fill="#FFFFFF" font-family="sans-serif"> ORD</text></g><g class="node" transform="translate(-16.713931931798584,13.348178558949474)"><circle class="outline" cx="0" cy="0" r="25" fill="#ECB5C9" stroke="#da7298" stroke-width="2px"/><text text-anchor="middle" pointer-events="none" font-family="sans-serif" dy="1.5625" font-size="25" fill="#2A2C34"/><text text-anchor="middle" pointer-events="none" x="0" y="5" font-size="10px" fill="#2A2C34" font-family="sans-serif"> 11/29/20…</text></g><g class="node" transform="translate(-39.568049471257346,130.86276810597275)"><circle class="outline" cx="0" cy="0" r="40" fill="#4C8EDA" stroke="#2870c2" stroke-width="2px"/><text text-anchor="middle" pointer-events="none" font-family="sans-serif" dy="2.5" font-size="40" fill="#FFFFFF"/><text text-anchor="middle" pointer-events="none" x="0" y="5" font-size="10px" fill="#FFFFFF" font-family="sans-serif"> MSP</text></g><g class="node" transform="translate(20.84675618866346,233.56628365055892)"><circle class="outline" cx="0" cy="0" r="25" fill="#ECB5C9" stroke="#da7298" stroke-width="2px"/><text text-anchor="middle" pointer-events="none" font-family="sans-serif" dy="1.5625" font-size="25" fill="#2A2C34"/><text text-anchor="middle" pointer-events="none" x="0" y="5" font-size="10px" fill="#2A2C34" font-family="sans-serif"> 11/25/20…</text></g></g></svg>