<svg xmlns="http://www.w3.org/2000/svg" width="1075.409423828125" height="986.97900390625" viewBox="-446.4100646972656 -366.47369384765625 1075.409423828125 986.97900390625"><title>Neo4j Graph Visualization</title><desc>Created using Neo4j (http://www.neo4j.com/)</desc><g class="layer relationships"><g class="relationship" transform="translate(279.1190834843451 -252.7870908826433) rotate(495.8106190019498)"><path class="outline" fill="#A5ABB6" stroke="none" d="M 25 0.5 L 36.10014656816453 0.5 L 36.10014656816453 -0.5 L 25 -0.5 Z M 70.54545906816453 0.5 L 81.64560563632907 0.5 L 81.64560563632907 3.5 L 88.64560563632907 0 L 81.64560563632907 -3.5 L 81.64560563632907 -0.5 L 70.54545906816453 -0.5 Z"/><text text-anchor="middle" pointer-events="none" font-size="8px" fill="#000000" x="53.32280281816453" y="3" transform="rotate(180 53.32280281816453 0)" font-family="sans-serif">ORIGIN</text></g><g class="relationship" transform="translate(279.1190834843451 -252.7870908826433) rotate(464.23572906554244)"><path class="outline" fill="#A5ABB6" stroke="none" d="M 25 0.5 L 44.02122054824848 0.5 L 44.02122054824848 -0.5 L 25 -0.5 Z M 103.20872054824848 0.5 L 122.22994109649696 0.5 L 122.22994109649696 3.5 L 129.22994109649696 0 L 122.22994109649696 -3.5 L 122.22994109649696 -0.5 L 103.20872054824848 -0.5 Z"/><text text-anchor="middle" pointer-events="none" font-size="8px" fill="#000000" x="73.61497054824848" y="3" transform="rotate(180 73.61497054824848 0)" font-family="sans-serif">DESTINATION</text></g><g class="relationship" transform="translate(1.0289410755352622 -84.36411220245958) rotate(358.9365303005843)"><path class="outline" fill="#A5ABB6" stroke="none" d="M 25 0.5 L 77.66386522210466 0.5 L 77.66386522210466 -0.5 L 25 -0.5 Z M 136.85136522210468 0.5 L 189.51523044420932 0.5 L 189.51523044420932 3.5 L 196.51523044420932 0 L 189.51523044420932 -3.5 L 189.51523044420932 -0.5 L 136.85136522210468 -0.5 Z"/><text text-anchor="middle" pointer-events="none" font-size="8px" fill="#000000" x="107.25761522210466" y="3" font-family="sans-serif">DESTINATION</text></g><g class="relationship" transform="translate(1.0289410755352622 -84.36411220245958) rotate(510.29006988011474)"><path class="outline" fill="#A5ABB6" stroke="none" d="M 25 0.5 L 94.71949615636325 0.5 L 94.71949615636325 -0.5 L 25 -0.5 Z M 129.16480865636325 0.5 L 198.8843048127265 0.5 L 198.8843048127265 3.5 L 205.8843048127265 0 L 198.8843048127265 -3.5 L 198.8843048127265 -0.5 L 129.16480865636325 -0.5 Z"/><text text-anchor="middle" pointer-events="none" font-size="8px" fill="#000000" x="111.94215240636325" y="3" transform="rotate(180 111.94215240636325 0)" font-family="sans-serif">ORIGIN</text></g><g class="relationship" transform="translate(50.41758072121081 292.5158538291188) rotate(224.12255492196914)"><path class="outline" fill="#A5ABB6" stroke="none" d="M 25 0.5 L 142.55700532931348 0.5 L 142.55700532931348 -0.5 L 25 -0.5 Z M 201.74450532931348 0.5 L 319.30151065862697 0.5 L 319.30151065862697 3.5 L 326.30151065862697 0 L 319.30151065862697 -3.5 L 319.30151065862697 -0.5 L 201.74450532931348 -0.5 Z"/><text text-anchor="middle" pointer-events="none" font-size="8px" fill="#000000" x="172.15075532931348" y="3" transform="rotate(180 172.15075532931348 0)" font-family="sans-serif">DESTINATION</text></g><g class="relationship" transform="translate(50.41758072121081 292.5158538291188) rotate(398.3511043109895)"><path class="outline" fill="#A5ABB6" stroke="none" d="M 25 0.5 L 130.3611099100757 0.5 L 130.3611099100757 -0.5 L 25 -0.5 Z M 164.8064224100757 0.5 L 270.1675323201514 0.5 L 270.1675323201514 3.5 L 277.1675323201514 0 L 270.1675323201514 -3.5 L 270.1675323201514 -0.5 L 164.8064224100757 -0.5 Z"/><text text-anchor="middle" pointer-events="none" font-size="8px" fill="#000000" x="147.5837661600757" y="3" font-family="sans-serif">ORIGIN</text></g><g class="relationship" transform="translate(472.8544174698789 422.96218116545094) rotate(519.0950324348726)"><path class="outline" fill="#A5ABB6" stroke="none" d="M 25 0.5 L 64.75079829520888 0.5 L 64.75079829520888 -0.5 L 25 -0.5 Z M 99.19611079520888 0.5 L 138.94690909041776 0.5 L 138.94690909041776 3.5 L 145.94690909041776 0 L 138.94690909041776 -3.5 L 138.94690909041776 -0.5 L 99.19611079520888 -0.5 Z"/><text text-anchor="middle" pointer-events="none" font-size="8px" fill="#000000" x="81.97345454520888" y="3" transform="rotate(180 81.97345454520888 0)" font-family="sans-serif">ORIGIN</text></g><g class="relationship" transform="translate(472.8544174698789 422.96218116545094) rotate(397.4221010457329)"><path class="outline" fill="#A5ABB6" stroke="none" d="M 25 0.5 L 30.010456038341275 0.5 L 30.010456038341275 -0.5 L 25 -0.5 Z M 89.19795603834127 0.5 L 94.20841207668255 0.5 L 94.20841207668255 3.5 L 101.20841207668255 0 L 94.20841207668255 -3.5 L 94.20841207668255 -0.5 L 89.19795603834127 -0.5 Z"/><text text-anchor="middle" pointer-events="none" font-size="8px" fill="#000000" x="59.604206038341275" y="3" font-family="sans-serif">DESTINATION</text></g><g class="relationship" transform="translate(465.16430934179317 482.2510951553609) rotate(537.5647504341231)"><path class="outline" fill="#A5ABB6" stroke="none" d="M 25 0.5 L 54.860665339273055 0.5 L 54.860665339273055 -0.5 L 25 -0.5 Z M 89.30597783927305 0.5 L 119.16664317854611 0.5 L 119.16664317854611 3.5 L 126.16664317854611 0 L 119.16664317854611 -3.5 L 119.16664317854611 -0.5 L 89.30597783927305 -0.5 Z"/><text text-anchor="middle" pointer-events="none" font-size="8px" fill="#000000" x="72.08332158927305" y="3" transform="rotate(180 72.08332158927305 0)" font-family="sans-serif">ORIGIN</text></g><g class="relationship" transform="translate(465.16430934179317 482.2510951553609) rotate(372.479098368079)"><path class="outline" fill="#A5ABB6" stroke="none" d="M 25 0.5 L 26.03139365693221 0.5 L 26.03139365693221 -0.5 L 25 -0.5 Z M 74.70326865693221 0.5 L 75.73466231386442 0.5 L 75.73466231386442 3.5 L 82.73466231386442 0 L 75.73466231386442 -3.5 L 75.73466231386442 -0.5 L 74.70326865693221 -0.5 Z"/><text text-anchor="middle" pointer-events="none" font-size="8px" fill="#000000" x="50.36733115693221" y="3" font-family="sans-serif">DESTINA…</text></g><g class="relationship" transform="translate(430.67726467513614 591.505294764331) rotate(217.84592466082267)"><path class="outline" fill="#A5ABB6" stroke="none" d="M 25 0.5 L 55.059356445681416 0.5 L 55.059356445681416 -0.5 L 25 -0.5 Z M 89.50466894568142 0.5 L 119.56402539136283 0.5 L 119.56402539136283 3.5 L 126.56402539136283 0 L 119.56402539136283 -3.5 L 119.56402539136283 -0.5 L 89.50466894568142 -0.5 Z"/><text text-anchor="middle" pointer-events="none" font-size="8px" fill="#000000" x="72.28201269568142" y="3" transform="rotate(180 72.28201269568142 0)" font-family="sans-serif">ORIGIN</text></g><g class="relationship" transform="translate(430.67726467513614 591.505294764331) rotate(331.803895031083)"><path class="outline" fill="#A5ABB6" stroke="none" d="M 25 0.5 L 46.956380020401454 0.5 L 46.956380020401454 -0.5 L 25 -0.5 Z M 106.14388002040145 0.5 L 128.1002600408029 0.5 L 128.1002600408029 3.5 L 135.1002600408029 0 L 128.1002600408029 -3.5 L 128.1002600408029 -0.5 L 106.14388002040145 -0.5 Z"/><text text-anchor="middle" pointer-events="none" font-size="8px" fill="#000000" x="76.55013002040145" y="3" font-family="sans-serif">DESTINATION</text></g><g class="relationship" transform="translate(480.44397372722824 558.3158691511252) rotate(200.837639219812)"><path class="outline" fill="#A5ABB6" stroke="none" d="M 25 0.5 L 68.76950773625751 0.5 L 68.76950773625751 -0.5 L 25 -0.5 Z M 103.21482023625751 0.5 L 146.98432797251502 0.5 L 146.98432797251502 3.5 L 153.98432797251502 0 L 146.98432797251502 -3.5 L 146.98432797251502 -0.5 L 103.21482023625751 -0.5 Z"/><text text-anchor="middle" pointer-events="none" font-size="8px" fill="#000000" x="85.99216398625751" y="3" transform="rotate(180 85.99216398625751 0)" font-family="sans-serif">ORIGIN</text></g><g class="relationship" transform="translate(480.44397372722824 558.3158691511252) rotate(334.64594145872445)"><path class="outline" fill="#A5ABB6" stroke="none" d="M 25 0.5 L 25.181879876279517 0.5 L 25.181879876279517 -0.5 L 25 -0.5 Z M 68.51781737627951 0.5 L 68.69969725255903 0.5 L 68.69969725255903 3.5 L 75.69969725255903 0 L 68.69969725255903 -3.5 L 68.69969725255903 -0.5 L 68.51781737627951 -0.5 Z"/><text text-anchor="middle" pointer-events="none" font-size="8px" fill="#000000" x="46.84984862627952" y="3" font-family="sans-serif">DESTIN…</text></g><g class="relationship" transform="translate(428.22544760917725 529.4101747211151) rotate(197.2576551911468)"><path class="outline" fill="#A5ABB6" stroke="none" d="M 25 0.5 L 39.358691049230316 0.5 L 39.358691049230316 -0.5 L 25 -0.5 Z M 73.80400354923032 0.5 L 88.16269459846063 0.5 L 88.16269459846063 3.5 L 95.16269459846063 0 L 88.16269459846063 -3.5 L 88.16269459846063 -0.5 L 73.80400354923032 -0.5 Z"/><text text-anchor="middle" pointer-events="none" font-size="8px" fill="#000000" x="56.581347299230316" y="3" transform="rotate(180 56.581347299230316 0)" font-family="sans-serif">ORIGIN</text></g><g class="relationship" transform="translate(428.22544760917725 529.4101747211151) rotate(352.50054792426886)"><path class="outline" fill="#A5ABB6" stroke="none" d="M 25 0.5 L 38.46950106441436 0.5 L 38.46950106441436 -0.5 L 25 -0.5 Z M 97.65700106441436 0.5 L 111.12650212882872 0.5 L 111.12650212882872 3.5 L 118.12650212882872 0 L 111.12650212882872 -3.5 L 111.12650212882872 -0.5 L 97.65700106441436 -0.5 Z"/><text text-anchor="middle" pointer-events="none" font-size="8px" fill="#000000" x="68.06325106441436" y="3" font-family="sans-serif">DESTINATION</text></g><g class="relationship" transform="translate(350.9962644287594 -165.55396254426904) rotate(539.1492885966494)"><path class="outline" fill="#A5ABB6" stroke="none" d="M 25 0.5 L 41.475896645810394 0.5 L 41.475896645810394 -0.5 L 25 -0.5 Z M 100.6633966458104 0.5 L 117.13929329162079 0.5 L 117.13929329162079 3.5 L 124.13929329162079 0 L 117.13929329162079 -3.5 L 117.13929329162079 -0.5 L 100.6633966458104 -0.5 Z"/><text text-anchor="middle" pointer-events="none" font-size="8px" fill="#000000" x="71.0696466458104" y="3" transform="rotate(180 71.0696466458104 0)" font-family="sans-serif">DESTINATION</text></g><g class="relationship" transform="translate(350.9962644287594 -165.55396254426904) rotate(505.91395007850144)"><path class="outline" fill="#A5ABB6" stroke="none" d="M 25 0.5 L 40.295376772588185 0.5 L 40.295376772588185 -0.5 L 25 -0.5 Z M 74.74068927258818 0.5 L 90.03606604517637 0.5 L 90.03606604517637 3.5 L 97.03606604517637 0 L 90.03606604517637 -3.5 L 90.03606604517637 -0.5 L 74.74068927258818 -0.5 Z"/><text text-anchor="middle" pointer-events="none" font-size="8px" fill="#000000" x="57.518033022588185" y="3" transform="rotate(180 57.518033022588185 0)" font-family="sans-serif">ORIGIN</text></g><g class="relationship" transform="translate(330.20955307567175 -221.6944685081281) rotate(517.7712944288658)"><path class="outline" fill="#A5ABB6" stroke="none" d="M 25 0.5 L 49.19843354644334 0.5 L 49.19843354644334 -0.5 L 25 -0.5 Z M 83.64374604644334 0.5 L 107.84217959288668 0.5 L 107.84217959288668 3.5 L 114.84217959288668 0 L 107.84217959288668 -3.5 L 107.84217959288668 -0.5 L 83.64374604644334 -0.5 Z"/><text text-anchor="middle" pointer-events="none" font-size="8px" fill="#000000" x="66.42108979644334" y="3" transform="rotate(180 66.42108979644334 0)" font-family="sans-serif">ORIGIN</text></g><g class="relationship" transform="translate(330.20955307567175 -221.6944685081281) rotate(484.8899820526151)"><path class="outline" fill="#A5ABB6" stroke="none" d="M 25 0.5 L 40.442720469881536 0.5 L 40.442720469881536 -0.5 L 25 -0.5 Z M 99.63022046988154 0.5 L 115.07294093976307 0.5 L 115.07294093976307 3.5 L 122.07294093976307 0 L 115.07294093976307 -3.5 L 115.07294093976307 -0.5 L 99.63022046988154 -0.5 Z"/><text text-anchor="middle" pointer-events="none" font-size="8px" fill="#000000" x="70.03647046988154" y="3" transform="rotate(180 70.03647046988154 0)" font-family="sans-serif">DESTINATION</text></g><g class="relationship" transform="translate(333.761094921847 -7.72297023487297) rotate(226.61221824028843)"><path class="outline" fill="#A5ABB6" stroke="none" d="M 25 0.5 L 78.69179305278597 0.5 L 78.69179305278597 -0.5 L 25 -0.5 Z M 113.13710555278597 0.5 L 166.82889860557194 0.5 L 166.82889860557194 3.5 L 173.82889860557194 0 L 166.82889860557194 -3.5 L 166.82889860557194 -0.5 L 113.13710555278597 -0.5 Z"/><text text-anchor="middle" pointer-events="none" font-size="8px" fill="#000000" x="95.91444930278597" y="3" transform="rotate(180 95.91444930278597 0)" font-family="sans-serif">ORIGIN</text></g><g class="relationship" transform="translate(333.761094921847 -7.72297023487297) rotate(445.0724902364825)"><path class="outline" fill="#A5ABB6" stroke="none" d="M 25 0.5 L 70.61647234755942 0.5 L 70.61647234755942 -0.5 L 25 -0.5 Z M 129.8039723475594 0.5 L 175.42044469511885 0.5 L 175.42044469511885 3.5 L 182.42044469511885 0 L 175.42044469511885 -3.5 L 175.42044469511885 -0.5 L 129.8039723475594 -0.5 Z"/><text text-anchor="middle" pointer-events="none" font-size="8px" fill="#000000" x="100.21022234755942" y="3" font-family="sans-serif">DESTINATION</text></g><g class="relationship" transform="translate(209.5178088115702 290.480659285152) rotate(331.87996572395735)"><path class="outline" fill="#A5ABB6" stroke="none" d="M 25 0.5 L 40.67286739599595 0.5 L 40.67286739599595 -0.5 L 25 -0.5 Z M 99.86036739599595 0.5 L 115.5332347919919 0.5 L 115.5332347919919 3.5 L 122.5332347919919 0 L 115.5332347919919 -3.5 L 115.5332347919919 -0.5 L 99.86036739599595 -0.5 Z"/><text text-anchor="middle" pointer-events="none" font-size="8px" fill="#000000" x="70.26661739599595" y="3" font-family="sans-serif">DESTINATION</text></g><g class="relationship" transform="translate(209.5178088115702 290.480659285152) rotate(194.73551229243117)"><path class="outline" fill="#A5ABB6" stroke="none" d="M 25 0.5 L 79.1464263276564 0.5 L 79.1464263276564 -0.5 L 25 -0.5 Z M 113.5917388276564 0.5 L 167.7381651553128 0.5 L 167.7381651553128 3.5 L 174.7381651553128 0 L 167.7381651553128 -3.5 L 167.7381651553128 -0.5 L 113.5917388276564 -0.5 Z"/><text text-anchor="middle" pointer-events="none" font-size="8px" fill="#000000" x="96.3690825776564" y="3" transform="rotate(180 96.3690825776564 0)" font-family="sans-serif">ORIGIN</text></g><g class="relationship" transform="translate(93.9410264067674 427.4018475254563) rotate(244.32039540880737)"><path class="outline" fill="#A5ABB6" stroke="none" d="M 25 0.5 L 65.67276882700071 0.5 L 65.67276882700071 -0.5 L 25 -0.5 Z M 124.86026882700071 0.5 L 165.53303765400142 0.5 L 165.53303765400142 3.5 L 172.53303765400142 0 L 165.53303765400142 -3.5 L 165.53303765400142 -0.5 L 124.86026882700071 -0.5 Z"/><text text-anchor="middle" pointer-events="none" font-size="8px" fill="#000000" x="95.26651882700071" y="3" transform="rotate(180 95.26651882700071 0)" font-family="sans-serif">DESTINATION</text></g><g class="relationship" transform="translate(93.9410264067674 427.4018475254563) rotate(376.78827068480723)"><path class="outline" fill="#A5ABB6" stroke="none" d="M 25 0.5 L 78.94847670926276 0.5 L 78.94847670926276 -0.5 L 25 -0.5 Z M 113.39378920926276 0.5 L 167.34226591852553 0.5 L 167.34226591852553 3.5 L 174.34226591852553 0 L 167.34226591852553 -3.5 L 167.34226591852553 -0.5 L 113.39378920926276 -0.5 Z"/><text text-anchor="middle" pointer-events="none" font-size="8px" fill="#000000" x="96.17113295926276" y="3" font-family="sans-serif">ORIGIN</text></g><g class="relationship" transform="translate(148.82817102863675 450.24213660571695) rotate(235.564420869375)"><path class="outline" fill="#A5ABB6" stroke="none" d="M 25 0.5 L 89.3719790596945 0.5 L 89.3719790596945 -0.5 L 25 -0.5 Z M 148.5594790596945 0.5 L 212.931458119389 0.5 L 212.931458119389 3.5 L 219.931458119389 0 L 212.931458119389 -3.5 L 212.931458119389 -0.5 L 148.5594790596945 -0.5 Z"/><text text-anchor="middle" pointer-events="none" font-size="8px" fill="#000000" x="118.9657290596945" y="3" transform="rotate(180 118.9657290596945 0)" font-family="sans-serif">DESTINATION</text></g><g class="relationship" transform="translate(148.82817102863675 450.24213660571695) rotate(374.5693416182367)"><path class="outline" fill="#A5ABB6" stroke="none" d="M 25 0.5 L 49.43426860943606 0.5 L 49.43426860943606 -0.5 L 25 -0.5 Z M 83.87958110943606 0.5 L 108.31384971887212 0.5 L 108.31384971887212 3.5 L 115.31384971887212 0 L 108.31384971887212 -3.5 L 108.31384971887212 -0.5 L 83.87958110943606 -0.5 Z"/><text text-anchor="middle" pointer-events="none" font-size="8px" fill="#000000" x="66.65692485943606" y="3" font-family="sans-serif">ORIGIN</text></g><g class="relationship" transform="translate(149.3763361141195 390.6451571283636) rotate(226.37390220826103)"><path class="outline" fill="#A5ABB6" stroke="none" d="M 25 0.5 L 66.32280886634685 0.5 L 66.32280886634685 -0.5 L 25 -0.5 Z M 125.51030886634685 0.5 L 166.8331177326937 0.5 L 166.8331177326937 3.5 L 173.8331177326937 0 L 166.8331177326937 -3.5 L 166.8331177326937 -0.5 L 125.51030886634685 -0.5 Z"/><text text-anchor="middle" pointer-events="none" font-size="8px" fill="#000000" x="95.91655886634685" y="3" transform="rotate(180 95.91655886634685 0)" font-family="sans-serif">DESTINATION</text></g><g class="relationship" transform="translate(149.3763361141195 390.6451571283636) rotate(393.3760957605731)"><path class="outline" fill="#A5ABB6" stroke="none" d="M 25 0.5 L 61.452497709413436 0.5 L 61.452497709413436 -0.5 L 25 -0.5 Z M 95.89781020941344 0.5 L 132.35030791882687 0.5 L 132.35030791882687 3.5 L 139.35030791882687 0 L 132.35030791882687 -3.5 L 132.35030791882687 -0.5 L 95.89781020941344 -0.5 Z"/><text text-anchor="middle" pointer-events="none" font-size="8px" fill="#000000" x="78.67515395941344" y="3" font-family="sans-serif">ORIGIN</text></g><g class="relationship" transform="translate(174.98742635294107 104.82918894543005) rotate(287.89742526192185)"><path class="outline" fill="#A5ABB6" stroke="none" d="M 25 0.5 L 61.11986310242486 0.5 L 61.11986310242486 -0.5 L 25 -0.5 Z M 120.30736310242486 0.5 L 156.42722620484972 0.5 L 156.42722620484972 3.5 L 163.42722620484972 0 L 156.42722620484972 -3.5 L 156.42722620484972 -0.5 L 120.30736310242486 -0.5 Z"/><text text-anchor="middle" pointer-events="none" font-size="8px" fill="#000000" x="90.71361310242486" y="3" font-family="sans-serif">DESTINATION</text></g><g class="relationship" transform="translate(174.98742635294107 104.82918894543005) rotate(502.88261390930984)"><path class="outline" fill="#A5ABB6" stroke="none" d="M 25 0.5 L 80.34576669421652 0.5 L 80.34576669421652 -0.5 L 25 -0.5 Z M 114.79107919421652 0.5 L 170.13684588843304 0.5 L 170.13684588843304 3.5 L 177.13684588843304 0 L 170.13684588843304 -3.5 L 170.13684588843304 -0.5 L 114.79107919421652 -0.5 Z"/><text text-anchor="middle" pointer-events="none" font-size="8px" fill="#000000" x="97.56842294421652" y="3" transform="rotate(180 97.56842294421652 0)" font-family="sans-serif">ORIGIN</text></g><g class="relationship" transform="translate(155.76771812434615 316.13371863350056) rotate(332.57886768254764)"><path class="outline" fill="#A5ABB6" stroke="none" d="M 25 0.5 L 70.4293027939469 0.5 L 70.4293027939469 -0.5 L 25 -0.5 Z M 129.6168027939469 0.5 L 175.0461055878938 0.5 L 175.0461055878938 3.5 L 182.0461055878938 0 L 175.0461055878938 -3.5 L 175.0461055878938 -0.5 L 129.6168027939469 -0.5 Z"/><text text-anchor="middle" pointer-events="none" font-size="8px" fill="#000000" x="100.0230527939469" y="3" font-family="sans-serif">DESTINATION</text></g><g class="relationship" transform="translate(155.76771812434615 316.13371863350056) rotate(207.54239475043153)"><path class="outline" fill="#A5ABB6" stroke="none" d="M 25 0.5 L 58.57715849493279 0.5 L 58.57715849493279 -0.5 L 25 -0.5 Z M 93.02247099493279 0.5 L 126.59962948986558 0.5 L 126.59962948986558 3.5 L 133.59962948986558 0 L 126.59962948986558 -3.5 L 126.59962948986558 -0.5 L 93.02247099493279 -0.5 Z"/><text text-anchor="middle" pointer-events="none" font-size="8px" fill="#000000" x="75.79981474493279" y="3" transform="rotate(180 75.79981474493279 0)" font-family="sans-serif">ORIGIN</text></g><g class="relationship" transform="translate(116.38807325776237 93.03648008199043) rotate(303.67300491405393)"><path class="outline" fill="#A5ABB6" stroke="none" d="M 25 0.5 L 80.9980458405734 0.5 L 80.9980458405734 -0.5 L 25 -0.5 Z M 115.4433583405734 0.5 L 171.4414041811468 0.5 L 171.4414041811468 3.5 L 178.4414041811468 0 L 171.4414041811468 -3.5 L 171.4414041811468 -0.5 L 115.4433583405734 -0.5 Z"/><text text-anchor="middle" pointer-events="none" font-size="8px" fill="#000000" x="98.2207020905734" y="3" font-family="sans-serif">ORIGIN</text></g><g class="relationship" transform="translate(116.38807325776237 93.03648008199043) rotate(488.72984669781096)"><path class="outline" fill="#A5ABB6" stroke="none" d="M 25 0.5 L 50.94777856749974 0.5 L 50.94777856749974 -0.5 L 25 -0.5 Z M 110.13527856749974 0.5 L 136.08305713499948 0.5 L 136.08305713499948 3.5 L 143.08305713499948 0 L 136.08305713499948 -3.5 L 136.08305713499948 -0.5 L 110.13527856749974 -0.5 Z"/><text text-anchor="middle" pointer-events="none" font-size="8px" fill="#000000" x="80.54152856749974" y="3" transform="rotate(180 80.54152856749974 0)" font-family="sans-serif">DESTINATION</text></g><g class="relationship" transform="translate(96.3628902839524 20.220156147138987) rotate(296.27521153640674)"><path class="outline" fill="#A5ABB6" stroke="none" d="M 25 0.5 L 61.63754553827731 0.5 L 61.63754553827731 -0.5 L 25 -0.5 Z M 120.82504553827731 0.5 L 157.46259107655462 0.5 L 157.46259107655462 3.5 L 164.46259107655462 0 L 157.46259107655462 -3.5 L 157.46259107655462 -0.5 L 120.82504553827731 -0.5 Z"/><text text-anchor="middle" pointer-events="none" font-size="8px" fill="#000000" x="91.23129553827731" y="3" font-family="sans-serif">DESTINATION</text></g><g class="relationship" transform="translate(96.3628902839524 20.220156147138987) rotate(473.66905260342367)"><path class="outline" fill="#A5ABB6" stroke="none" d="M 25 0.5 L 89.50038659515548 0.5 L 89.50038659515548 -0.5 L 25 -0.5 Z M 123.94569909515548 0.5 L 188.44608569031095 0.5 L 188.44608569031095 3.5 L 195.44608569031095 0 L 188.44608569031095 -3.5 L 188.44608569031095 -0.5 L 123.94569909515548 -0.5 Z"/><text text-anchor="middle" pointer-events="none" font-size="8px" fill="#000000" x="106.72304284515548" y="3" transform="rotate(180 106.72304284515548 0)" font-family="sans-serif">ORIGIN</text></g><g class="relationship" transform="translate(-127.75663377898533 221.74055482255397) rotate(366.2178739478228)"><path class="outline" fill="#A5ABB6" stroke="none" d="M 25 0.5 L 26.589183700723197 0.5 L 26.589183700723197 -0.5 L 25 -0.5 Z M 81.7766837007232 0.5 L 83.3658674014464 0.5 L 83.3658674014464 3.5 L 90.3658674014464 0 L 83.3658674014464 -3.5 L 83.3658674014464 -0.5 L 81.7766837007232 -0.5 Z"/><text text-anchor="middle" pointer-events="none" font-size="8px" fill="#000000" x="54.1829337007232" y="3" font-family="sans-serif">DESTINATI…</text></g><g class="relationship" transform="translate(-127.75663377898533 221.74055482255397) rotate(245.2912101405795)"><path class="outline" fill="#A5ABB6" stroke="none" d="M 25 0.5 L 73.18267499884067 0.5 L 73.18267499884067 -0.5 L 25 -0.5 Z M 107.62798749884067 0.5 L 155.81066249768134 0.5 L 155.81066249768134 3.5 L 162.81066249768134 0 L 155.81066249768134 -3.5 L 155.81066249768134 -0.5 L 107.62798749884067 -0.5 Z"/><text text-anchor="middle" pointer-events="none" font-size="8px" fill="#000000" x="90.40533124884067" y="3" transform="rotate(180 90.40533124884067 0)" font-family="sans-serif">ORIGIN</text></g><g class="relationship" transform="translate(-73.84947827727476 111.88787615700491) rotate(418.5937248346148)"><path class="outline" fill="#A5ABB6" stroke="none" d="M 25 0.5 L 44.403851873768545 0.5 L 44.403851873768545 -0.5 L 25 -0.5 Z M 78.84916437376855 0.5 L 98.25301624753709 0.5 L 98.25301624753709 3.5 L 105.25301624753709 0 L 98.25301624753709 -3.5 L 98.25301624753709 -0.5 L 78.84916437376855 -0.5 Z"/><text text-anchor="middle" pointer-events="none" font-size="8px" fill="#000000" x="61.626508123768545" y="3" font-family="sans-serif">ORIGIN</text></g><g class="relationship" transform="translate(-73.84947827727476 111.88787615700491) rotate(208.20902242751674)"><path class="outline" fill="#A5ABB6" stroke="none" d="M 25 0.5 L 38.093693961323 0.5 L 38.093693961323 -0.5 L 25 -0.5 Z M 97.281193961323 0.5 L 110.374887922646 0.5 L 110.374887922646 3.5 L 117.374887922646 0 L 110.374887922646 -3.5 L 110.374887922646 -0.5 L 97.281193961323 -0.5 Z"/><text text-anchor="middle" pointer-events="none" font-size="8px" fill="#000000" x="67.687443961323" y="3" transform="rotate(180 67.687443961323 0)" font-family="sans-serif">DESTINATION</text></g><g class="relationship" transform="translate(-186.89492375426747 229.0152843883706) rotate(362.07709536965433)"><path class="outline" fill="#A5ABB6" stroke="none" d="M 25 0.5 L 53.836916577399705 0.5 L 53.836916577399705 -0.5 L 25 -0.5 Z M 113.0244165773997 0.5 L 141.8613331547994 0.5 L 141.8613331547994 3.5 L 148.8613331547994 0 L 141.8613331547994 -3.5 L 141.8613331547994 -0.5 L 113.0244165773997 -0.5 Z"/><text text-anchor="middle" pointer-events="none" font-size="8px" fill="#000000" x="83.4306665773997" y="3" font-family="sans-serif">DESTINATION</text></g><g class="relationship" transform="translate(-186.89492375426747 229.0152843883706) rotate(262.375290991972)"><path class="outline" fill="#A5ABB6" stroke="none" d="M 25 0.5 L 68.38998865914336 0.5 L 68.38998865914336 -0.5 L 25 -0.5 Z M 102.83530115914336 0.5 L 146.2252898182867 0.5 L 146.2252898182867 3.5 L 153.2252898182867 0 L 146.2252898182867 -3.5 L 146.2252898182867 -0.5 L 102.83530115914336 -0.5 Z"/><text text-anchor="middle" pointer-events="none" font-size="8px" fill="#000000" x="85.61264490914336" y="3" transform="rotate(180 85.61264490914336 0)" font-family="sans-serif">ORIGIN</text></g><g class="relationship" transform="translate(-163.44065329043752 173.90092881285125) rotate(380.5494715119513)"><path class="outline" fill="#A5ABB6" stroke="none" d="M 25 0.5 L 47.6635999933506 0.5 L 47.6635999933506 -0.5 L 25 -0.5 Z M 106.8510999933506 0.5 L 129.5146999867012 0.5 L 129.5146999867012 3.5 L 136.5146999867012 0 L 129.5146999867012 -3.5 L 129.5146999867012 -0.5 L 106.8510999933506 -0.5 Z"/><text text-anchor="middle" pointer-events="none" font-size="8px" fill="#000000" x="77.2573499933506" y="3" font-family="sans-serif">DESTINATION</text></g><g class="relationship" transform="translate(-163.44065329043752 173.90092881285125) rotate(250.20586912132137)"><path class="outline" fill="#A5ABB6" stroke="none" d="M 25 0.5 L 44.2612815954931 0.5 L 44.2612815954931 -0.5 L 25 -0.5 Z M 78.7065940954931 0.5 L 97.9678756909862 0.5 L 97.9678756909862 3.5 L 104.9678756909862 0 L 97.9678756909862 -3.5 L 97.9678756909862 -0.5 L 78.7065940954931 -0.5 Z"/><text text-anchor="middle" pointer-events="none" font-size="8px" fill="#000000" x="61.4839378454931" y="3" transform="rotate(180 61.4839378454931 0)" font-family="sans-serif">ORIGIN</text></g><g class="relationship" transform="translate(-132.7421554319674 122.22827425479242) rotate(400.1750157950836)"><path class="outline" fill="#A5ABB6" stroke="none" d="M 25 0.5 L 47.47617181042435 0.5 L 47.47617181042435 -0.5 L 25 -0.5 Z M 106.66367181042435 0.5 L 129.1398436208487 0.5 L 129.1398436208487 3.5 L 136.1398436208487 0 L 129.1398436208487 -3.5 L 129.1398436208487 -0.5 L 106.66367181042435 -0.5 Z"/><text text-anchor="middle" pointer-events="none" font-size="8px" fill="#000000" x="77.06992181042435" y="3" font-family="sans-serif">DESTINATION</text></g><g class="relationship" transform="translate(-132.7421554319674 122.22827425479242) rotate(226.7196119316692)"><path class="outline" fill="#A5ABB6" stroke="none" d="M 25 0.5 L 29.97033302733172 0.5 L 29.97033302733172 -0.5 L 25 -0.5 Z M 64.41564552733172 0.5 L 69.38597855466344 0.5 L 69.38597855466344 3.5 L 76.38597855466344 0 L 69.38597855466344 -3.5 L 69.38597855466344 -0.5 L 64.41564552733172 -0.5 Z"/><text text-anchor="middle" pointer-events="none" font-size="8px" fill="#000000" x="47.19298927733172" y="3" transform="rotate(180 47.19298927733172 0)" font-family="sans-serif">ORIGIN</text></g><g class="relationship" transform="translate(-97.29069957969368 170.006683029893) rotate(393.5959543079882)"><path class="outline" fill="#A5ABB6" stroke="none" d="M 25 0.5 L 26.838479738597876 0.5 L 26.838479738597876 -0.5 L 25 -0.5 Z M 70.17441723859787 0.5 L 72.01289697719575 0.5 L 72.01289697719575 3.5 L 79.01289697719575 0 L 72.01289697719575 -3.5 L 72.01289697719575 -0.5 L 70.17441723859787 -0.5 Z"/><text text-anchor="middle" pointer-events="none" font-size="8px" fill="#000000" x="48.506448488597876" y="3" font-family="sans-serif">DESTIN…</text></g><g class="relationship" transform="translate(-97.29069957969368 170.006683029893) rotate(228.9866007367375)"><path class="outline" fill="#A5ABB6" stroke="none" d="M 25 0.5 L 59.582786118951375 0.5 L 59.582786118951375 -0.5 L 25 -0.5 Z M 94.02809861895138 0.5 L 128.61088473790275 0.5 L 128.61088473790275 3.5 L 135.61088473790275 0 L 128.61088473790275 -3.5 L 128.61088473790275 -0.5 L 94.02809861895138 -0.5 Z"/><text text-anchor="middle" pointer-events="none" font-size="8px" fill="#000000" x="76.80544236895138" y="3" transform="rotate(180 76.80544236895138 0)" font-family="sans-serif">ORIGIN</text></g><g class="relationship" transform="translate(153.1942660008467 38.5779782532283) rotate(279.4802798567761)"><path class="outline" fill="#A5ABB6" stroke="none" d="M 25 0.5 L 61.65012962933416 0.5 L 61.65012962933416 -0.5 L 25 -0.5 Z M 120.83762962933416 0.5 L 157.48775925866832 0.5 L 157.48775925866832 3.5 L 164.48775925866832 0 L 157.48775925866832 -3.5 L 157.48775925866832 -0.5 L 120.83762962933416 -0.5 Z"/><text text-anchor="middle" pointer-events="none" font-size="8px" fill="#000000" x="91.24387962933416" y="3" font-family="sans-serif">DESTINATION</text></g><g class="relationship" transform="translate(153.1942660008467 38.5779782532283) rotate(487.4948462025702)"><path class="outline" fill="#A5ABB6" stroke="none" d="M 25 0.5 L 96.10329758241208 0.5 L 96.10329758241208 -0.5 L 25 -0.5 Z M 130.5486100824121 0.5 L 201.65190766482417 0.5 L 201.65190766482417 3.5 L 208.65190766482417 0 L 201.65190766482417 -3.5 L 201.65190766482417 -0.5 L 130.5486100824121 -0.5 Z"/><text text-anchor="middle" pointer-events="none" font-size="8px" fill="#000000" x="113.32595383241208" y="3" transform="rotate(180 113.32595383241208 0)" font-family="sans-serif">ORIGIN</text></g><g class="relationship" transform="translate(361.7694199859787 -68.04281729486722) rotate(208.52889980139105)"><path class="outline" fill="#A5ABB6" stroke="none" d="M 25 0.5 L 71.3101628418357 0.5 L 71.3101628418357 -0.5 L 25 -0.5 Z M 105.7554753418357 0.5 L 152.0656381836714 0.5 L 152.0656381836714 3.5 L 159.0656381836714 0 L 152.0656381836714 -3.5 L 152.0656381836714 -0.5 L 105.7554753418357 -0.5 Z"/><text text-anchor="middle" pointer-events="none" font-size="8px" fill="#000000" x="88.5328190918357" y="3" transform="rotate(180 88.5328190918357 0)" font-family="sans-serif">ORIGIN</text></g><g class="relationship" transform="translate(361.7694199859787 -68.04281729486722) rotate(449.944753573779)"><path class="outline" fill="#A5ABB6" stroke="none" d="M 25 0.5 L 55.61626244937426 0.5 L 55.61626244937426 -0.5 L 25 -0.5 Z M 114.80376244937426 0.5 L 145.42002489874852 0.5 L 145.42002489874852 3.5 L 152.42002489874852 0 L 145.42002489874852 -3.5 L 145.42002489874852 -0.5 L 114.80376244937426 -0.5 Z"/><text text-anchor="middle" pointer-events="none" font-size="8px" fill="#000000" x="85.21001244937426" y="3" font-family="sans-serif">DESTINATION</text></g><g class="relationship" transform="translate(228.70858763433614 233.65786020460922) rotate(320.6434348365766)"><path class="outline" fill="#A5ABB6" stroke="none" d="M 25 0.5 L 45.57015727605645 0.5 L 45.57015727605645 -0.5 L 25 -0.5 Z M 104.75765727605645 0.5 L 125.3278145521129 0.5 L 125.3278145521129 3.5 L 132.3278145521129 0 L 125.3278145521129 -3.5 L 125.3278145521129 -0.5 L 104.75765727605645 -0.5 Z"/><text text-anchor="middle" pointer-events="none" font-size="8px" fill="#000000" x="75.16390727605645" y="3" font-family="sans-serif">DESTINATION</text></g><g class="relationship" transform="translate(228.70858763433614 233.65786020460922) rotate(539.4437554844717)"><path class="outline" fill="#A5ABB6" stroke="none" d="M 25 0.5 L 85.21582314698091 0.5 L 85.21582314698091 -0.5 L 25 -0.5 Z M 119.66113564698091 0.5 L 179.87695879396182 0.5 L 179.87695879396182 3.5 L 186.87695879396182 0 L 179.87695879396182 -3.5 L 179.87695879396182 -0.5 L 119.66113564698091 -0.5 Z"/><text text-anchor="middle" pointer-events="none" font-size="8px" fill="#000000" x="102.43847939698091" y="3" transform="rotate(180 102.43847939698091 0)" font-family="sans-serif">ORIGIN</text></g><g class="relationship" transform="translate(-114.73406180678435 -115.23607184528052) rotate(350.9794874984159)"><path class="outline" fill="#A5ABB6" stroke="none" d="M 25 0.5 L 112.09927845283204 0.5 L 112.09927845283204 -0.5 L 25 -0.5 Z M 171.28677845283204 0.5 L 258.3860569056641 0.5 L 258.3860569056641 3.5 L 265.3860569056641 0 L 258.3860569056641 -3.5 L 258.3860569056641 -0.5 L 171.28677845283204 -0.5 Z"/><text text-anchor="middle" pointer-events="none" font-size="8px" fill="#000000" x="141.69302845283204" y="3" font-family="sans-serif">DESTINATION</text></g><g class="relationship" transform="translate(-114.73406180678435 -115.23607184528052) rotate(515.4756745722893)"><path class="outline" fill="#A5ABB6" stroke="none" d="M 25 0.5 L 129.8784202551524 0.5 L 129.8784202551524 -0.5 L 25 -0.5 Z M 164.3237327551524 0.5 L 269.2021530103048 0.5 L 269.2021530103048 3.5 L 276.2021530103048 0 L 269.2021530103048 -3.5 L 269.2021530103048 -0.5 L 164.3237327551524 -0.5 Z"/><text text-anchor="middle" pointer-events="none" font-size="8px" fill="#000000" x="147.1010765051524" y="3" transform="rotate(180 147.1010765051524 0)" font-family="sans-serif">ORIGIN</text></g><g class="relationship" transform="translate(-245.5149233792169 187.92651472032264) rotate(227.61517610277514)"><path class="outline" fill="#A5ABB6" stroke="none" d="M 25 0.5 L 75.77887974369415 0.5 L 75.77887974369415 -0.5 L 25 -0.5 Z M 134.96637974369415 0.5 L 185.7452594873883 0.5 L 185.7452594873883 3.5 L 192.7452594873883 0 L 185.7452594873883 -3.5 L 185.7452594873883 -0.5 L 134.96637974369415 -0.5 Z"/><text text-anchor="middle" pointer-events="none" font-size="8px" fill="#000000" x="105.37262974369415" y="3" transform="rotate(180 105.37262974369415 0)" font-family="sans-serif">DESTINATION</text></g><g class="relationship" transform="translate(-245.5149233792169 187.92651472032264) rotate(370.9670795889106)"><path class="outline" fill="#A5ABB6" stroke="none" d="M 25 0.5 L 97.75677148684161 0.5 L 97.75677148684161 -0.5 L 25 -0.5 Z M 132.20208398684161 0.5 L 204.95885547368323 0.5 L 204.95885547368323 3.5 L 211.95885547368323 0 L 204.95885547368323 -3.5 L 204.95885547368323 -0.5 L 132.20208398684161 -0.5 Z"/><text text-anchor="middle" pointer-events="none" font-size="8px" fill="#000000" x="114.97942773684161" y="3" font-family="sans-serif">ORIGIN</text></g><g class="relationship" transform="translate(203.3139971859326 179.31089805024106) rotate(340.90018640083144)"><path class="outline" fill="#A5ABB6" stroke="none" d="M 25 0.5 L 43.34770946175652 0.5 L 43.34770946175652 -0.5 L 25 -0.5 Z M 102.53520946175652 0.5 L 120.88291892351305 0.5 L 120.88291892351305 3.5 L 127.88291892351305 0 L 120.88291892351305 -3.5 L 120.88291892351305 -0.5 L 102.53520946175652 -0.5 Z"/><text text-anchor="middle" pointer-events="none" font-size="8px" fill="#000000" x="72.94145946175652" y="3" font-family="sans-serif">DESTINATION</text></g><g class="relationship" transform="translate(203.3139971859326 179.31089805024106) rotate(524.3215135728678)"><path class="outline" fill="#A5ABB6" stroke="none" d="M 25 0.5 L 76.40607351469211 0.5 L 76.40607351469211 -0.5 L 25 -0.5 Z M 110.85138601469211 0.5 L 162.25745952938422 0.5 L 162.25745952938422 3.5 L 169.25745952938422 0 L 162.25745952938422 -3.5 L 162.25745952938422 -0.5 L 110.85138601469211 -0.5 Z"/><text text-anchor="middle" pointer-events="none" font-size="8px" fill="#000000" x="93.62872976469211" y="3" transform="rotate(180 93.62872976469211 0)" font-family="sans-serif">ORIGIN</text></g><g class="relationship" transform="translate(169.16334492335815 228.23539164008068) rotate(331.68832365045716)"><path class="outline" fill="#A5ABB6" stroke="none" d="M 25 0.5 L 81.27066187418995 0.5 L 81.27066187418995 -0.5 L 25 -0.5 Z M 115.71597437418995 0.5 L 171.9866362483799 0.5 L 171.9866362483799 3.5 L 178.9866362483799 0 L 171.9866362483799 -3.5 L 171.9866362483799 -0.5 L 115.71597437418995 -0.5 Z"/><text text-anchor="middle" pointer-events="none" font-size="8px" fill="#000000" x="98.49331812418995" y="3" font-family="sans-serif">ORIGIN</text></g><g class="relationship" transform="translate(169.16334492335815 228.23539164008068) rotate(537.3907666815699)"><path class="outline" fill="#A5ABB6" stroke="none" d="M 25 0.5 L 43.153587581366835 0.5 L 43.153587581366835 -0.5 L 25 -0.5 Z M 102.34108758136684 0.5 L 120.49467516273367 0.5 L 120.49467516273367 3.5 L 127.49467516273367 0 L 120.49467516273367 -3.5 L 120.49467516273367 -0.5 L 102.34108758136684 -0.5 Z"/><text text-anchor="middle" pointer-events="none" font-size="8px" fill="#000000" x="72.74733758136684" y="3" transform="rotate(180 72.74733758136684 0)" font-family="sans-serif">DESTINATION</text></g><g class="relationship" transform="translate(125.73439710812501 -337.47369193826256) rotate(430.67605747026107)"><path class="outline" fill="#A5ABB6" stroke="none" d="M 25 0.5 L 64.16031231557642 0.5 L 64.16031231557642 -0.5 L 25 -0.5 Z M 98.60562481557642 0.5 L 137.76593713115284 0.5 L 137.76593713115284 3.5 L 144.76593713115284 0 L 137.76593713115284 -3.5 L 137.76593713115284 -0.5 L 98.60562481557642 -0.5 Z"/><text text-anchor="middle" pointer-events="none" font-size="8px" fill="#000000" x="81.38296856557642" y="3" font-family="sans-serif">ORIGIN</text></g><g class="relationship" transform="translate(125.73439710812501 -337.47369193826256) rotate(501.43018390098405)"><path class="outline" fill="#A5ABB6" stroke="none" d="M 25 0.5 L 43.52018894286688 0.5 L 43.52018894286688 -0.5 L 25 -0.5 Z M 102.70768894286688 0.5 L 121.22787788573376 0.5 L 121.22787788573376 3.5 L 128.22787788573376 0 L 121.22787788573376 -3.5 L 121.22787788573376 -0.5 L 102.70768894286688 -0.5 Z"/><text text-anchor="middle" pointer-events="none" font-size="8px" fill="#000000" x="73.11393894286688" y="3" transform="rotate(180 73.11393894286688 0)" font-family="sans-serif">DESTINATION</text></g><g class="relationship" transform="translate(-19.96147977206375 29.26771229779733) rotate(273.09681909240913)"><path class="outline" fill="#A5ABB6" stroke="none" d="M 25 0.5 L 90.52609788018896 0.5 L 90.52609788018896 -0.5 L 25 -0.5 Z M 149.71359788018896 0.5 L 215.2396957603779 0.5 L 215.2396957603779 3.5 L 222.2396957603779 0 L 215.2396957603779 -3.5 L 215.2396957603779 -0.5 L 149.71359788018896 -0.5 Z"/><text text-anchor="middle" pointer-events="none" font-size="8px" fill="#000000" x="120.11984788018896" y="3" font-family="sans-serif">DESTINATION</text></g><g class="relationship" transform="translate(-19.96147977206375 29.26771229779733) rotate(443.9753046831255)"><path class="outline" fill="#A5ABB6" stroke="none" d="M 25 0.5 L 75.64739528732309 0.5 L 75.64739528732309 -0.5 L 25 -0.5 Z M 110.09270778732309 0.5 L 160.74010307464619 0.5 L 160.74010307464619 3.5 L 167.74010307464619 0 L 160.74010307464619 -3.5 L 160.74010307464619 -0.5 L 110.09270778732309 -0.5 Z"/><text text-anchor="middle" pointer-events="none" font-size="8px" fill="#000000" x="92.87005153732309" y="3" font-family="sans-serif">ORIGIN</text></g><g class="relationship" transform="translate(-22.823174102756266 -29.79821898295257) rotate(274.799985490247)"><path class="outline" fill="#A5ABB6" stroke="none" d="M 25 0.5 L 61.15851148277174 0.5 L 61.15851148277174 -0.5 L 25 -0.5 Z M 120.34601148277174 0.5 L 156.5045229655435 0.5 L 156.5045229655435 3.5 L 163.5045229655435 0 L 156.5045229655435 -3.5 L 156.5045229655435 -0.5 L 120.34601148277174 -0.5 Z"/><text text-anchor="middle" pointer-events="none" font-size="8px" fill="#000000" x="90.75226148277174" y="3" font-family="sans-serif">DESTINATION</text></g><g class="relationship" transform="translate(-22.823174102756266 -29.79821898295257) rotate(444.69549064957727)"><path class="outline" fill="#A5ABB6" stroke="none" d="M 25 0.5 L 105.17795873869778 0.5 L 105.17795873869778 -0.5 L 25 -0.5 Z M 139.62327123869778 0.5 L 219.80122997739556 0.5 L 219.80122997739556 3.5 L 226.80122997739556 0 L 219.80122997739556 -3.5 L 219.80122997739556 -0.5 L 139.62327123869778 -0.5 Z"/><text text-anchor="middle" pointer-events="none" font-size="8px" fill="#000000" x="122.40061498869778" y="3" font-family="sans-serif">ORIGIN</text></g><g class="relationship" transform="translate(118.05305541403025 -267.6992586676834) rotate(416.65246300842756)"><path class="outline" fill="#A5ABB6" stroke="none" d="M 25 0.5 L 34.37511980186294 0.5 L 34.37511980186294 -0.5 L 25 -0.5 Z M 68.82043230186294 0.5 L 78.19555210372587 0.5 L 78.19555210372587 3.5 L 85.19555210372587 0 L 78.19555210372587 -3.5 L 78.19555210372587 -0.5 L 68.82043230186294 -0.5 Z"/><text text-anchor="middle" pointer-events="none" font-size="8px" fill="#000000" x="51.59777605186294" y="3" font-family="sans-serif">ORIGIN</text></g><g class="relationship" transform="translate(118.05305541403025 -267.6992586676834) rotate(524.1721910968804)"><path class="outline" fill="#A5ABB6" stroke="none" d="M 25 0.5 L 25.770296671672924 0.5 L 25.770296671672924 -0.5 L 25 -0.5 Z M 80.95779667167292 0.5 L 81.72809334334585 0.5 L 81.72809334334585 3.5 L 88.72809334334585 0 L 81.72809334334585 -3.5 L 81.72809334334585 -0.5 L 80.95779667167292 -0.5 Z"/><text text-anchor="middle" pointer-events="none" font-size="8px" fill="#000000" x="53.364046671672924" y="3" transform="rotate(180 53.364046671672924 0)" font-family="sans-serif">DESTINATI…</text></g><g class="relationship" transform="translate(-334.22644557506464 -110.53735924189408) rotate(478.31519561851724)"><path class="outline" fill="#A5ABB6" stroke="none" d="M 25 0.5 L 31.281130735871415 0.5 L 31.281130735871415 -0.5 L 25 -0.5 Z M 90.46863073587141 0.5 L 96.74976147174283 0.5 L 96.74976147174283 3.5 L 103.74976147174283 0 L 96.74976147174283 -3.5 L 96.74976147174283 -0.5 L 90.46863073587141 -0.5 Z"/><text text-anchor="middle" pointer-events="none" font-size="8px" fill="#000000" x="60.874880735871415" y="3" transform="rotate(180 60.874880735871415 0)" font-family="sans-serif">DESTINATION</text></g><g class="relationship" transform="translate(-334.22644557506464 -110.53735924189408) rotate(410.57789142906165)"><path class="outline" fill="#A5ABB6" stroke="none" d="M 25 0.5 L 67.5947922667583 0.5 L 67.5947922667583 -0.5 L 25 -0.5 Z M 102.0401047667583 0.5 L 144.6348970335166 0.5 L 144.6348970335166 3.5 L 151.6348970335166 0 L 144.6348970335166 -3.5 L 144.6348970335166 -0.5 L 102.0401047667583 -0.5 Z"/><text text-anchor="middle" pointer-events="none" font-size="8px" fill="#000000" x="84.8174485167583" y="3" font-family="sans-serif">ORIGIN</text></g><g class="relationship" transform="translate(-343.7183625184592 81.02535781725082) rotate(227.92498879253378)"><path class="outline" fill="#A5ABB6" stroke="none" d="M 25 0.5 L 32.793058279189246 0.5 L 32.793058279189246 -0.5 L 25 -0.5 Z M 32.793058279189246 0.5 L 40.58611655837849 0.5 L 40.58611655837849 3.5 L 47.58611655837849 0 L 40.58611655837849 -3.5 L 40.58611655837849 -0.5 L 32.793058279189246 -0.5 Z"/><text text-anchor="middle" pointer-events="none" font-size="8px" fill="#000000" x="32.793058279189246" y="3" transform="rotate(180 32.793058279189246 0)" font-family="sans-serif"/></g><g class="relationship" transform="translate(-343.7183625184592 81.02535781725082) rotate(341.6443231074543)"><path class="outline" fill="#A5ABB6" stroke="none" d="M 25 0.5 L 40.886401256555274 0.5 L 40.886401256555274 -0.5 L 25 -0.5 Z M 75.33171375655527 0.5 L 91.21811501311055 0.5 L 91.21811501311055 3.5 L 98.21811501311055 0 L 91.21811501311055 -3.5 L 91.21811501311055 -0.5 L 75.33171375655527 -0.5 Z"/><text text-anchor="middle" pointer-events="none" font-size="8px" fill="#000000" x="58.109057506555274" y="3" font-family="sans-serif">ORIGIN</text></g><g class="relationship" transform="translate(-385.7759260690462 123.62597521612511) rotate(261.2131146687211)"><path class="outline" fill="#A5ABB6" stroke="none" d="M 25 0.5 L 26.22285220991393 0.5 L 26.22285220991393 -0.5 L 25 -0.5 Z M 60.66816470991393 0.5 L 61.89101691982786 0.5 L 61.89101691982786 3.5 L 68.89101691982786 0 L 61.89101691982786 -3.5 L 61.89101691982786 -0.5 L 60.66816470991393 -0.5 Z"/><text text-anchor="middle" pointer-events="none" font-size="8px" fill="#000000" x="43.44550845991393" y="3" transform="rotate(180 43.44550845991393 0)" font-family="sans-serif">ORIGIN</text></g><g class="relationship" transform="translate(-385.7759260690462 123.62597521612511) rotate(333.56580073974555)"><path class="outline" fill="#A5ABB6" stroke="none" d="M 25 0.5 L 56.14189295356381 0.5 L 56.14189295356381 -0.5 L 25 -0.5 Z M 115.32939295356381 0.5 L 146.47128590712762 0.5 L 146.47128590712762 3.5 L 153.47128590712762 0 L 146.47128590712762 -3.5 L 146.47128590712762 -0.5 L 115.32939295356381 -0.5 Z"/><text text-anchor="middle" pointer-events="none" font-size="8px" fill="#000000" x="85.73564295356381" y="3" font-family="sans-serif">DESTINATION</text></g><g class="relationship" transform="translate(-226.80103143943572 131.09158576560966) rotate(213.23728334927432)"><path class="outline" fill="#A5ABB6" stroke="none" d="M 25 0.5 L 76.75546601769025 0.5 L 76.75546601769025 -0.5 L 25 -0.5 Z M 111.20077851769025 0.5 L 162.9562445353805 0.5 L 162.9562445353805 3.5 L 169.9562445353805 0 L 162.9562445353805 -3.5 L 162.9562445353805 -0.5 L 111.20077851769025 -0.5 Z"/><text text-anchor="middle" pointer-events="none" font-size="8px" fill="#000000" x="93.97812226769025" y="3" transform="rotate(180 93.97812226769025 0)" font-family="sans-serif">ORIGIN</text></g><g class="relationship" transform="translate(-226.80103143943572 131.09158576560966) rotate(384.6181718729197)"><path class="outline" fill="#A5ABB6" stroke="none" d="M 25 0.5 L 85.15827771596763 0.5 L 85.15827771596763 -0.5 L 25 -0.5 Z M 144.34577771596764 0.5 L 204.50405543193526 0.5 L 204.50405543193526 3.5 L 211.50405543193526 0 L 204.50405543193526 -3.5 L 204.50405543193526 -0.5 L 144.34577771596764 -0.5 Z"/><text text-anchor="middle" pointer-events="none" font-size="8px" fill="#000000" x="114.75202771596763" y="3" font-family="sans-serif">DESTINATION</text></g><g class="relationship" transform="translate(73.80197110304228 -307.9745233973387) rotate(412.02507081306607)"><path class="outline" fill="#A5ABB6" stroke="none" d="M 25 0.5 L 63.65938535268073 0.5 L 63.65938535268073 -0.5 L 25 -0.5 Z M 98.10469785268073 0.5 L 136.76408320536146 0.5 L 136.76408320536146 3.5 L 143.76408320536146 0 L 136.76408320536146 -3.5 L 136.76408320536146 -0.5 L 98.10469785268073 -0.5 Z"/><text text-anchor="middle" pointer-events="none" font-size="8px" fill="#000000" x="80.88204160268073" y="3" font-family="sans-serif">ORIGIN</text></g><g class="relationship" transform="translate(73.80197110304228 -307.9745233973387) rotate(496.55635205693864)"><path class="outline" fill="#A5ABB6" stroke="none" d="M 25 0.5 L 25.03529118205997 0.5 L 25.03529118205997 -0.5 L 25 -0.5 Z M 62.59388493205997 0.5 L 62.62917611411994 0.5 L 62.62917611411994 3.5 L 69.62917611411994 0 L 62.62917611411994 -3.5 L 62.62917611411994 -0.5 L 62.59388493205997 -0.5 Z"/><text text-anchor="middle" pointer-events="none" font-size="8px" fill="#000000" x="43.81458805705997" y="3" transform="rotate(180 43.81458805705997 0)" font-family="sans-serif">DESTI…</text></g><g class="relationship" transform="translate(170.06607566260487 -297.36091780126117) rotate(442.86301019497034)"><path class="outline" fill="#A5ABB6" stroke="none" d="M 25 0.5 L 39.42344977227371 0.5 L 39.42344977227371 -0.5 L 25 -0.5 Z M 73.86876227227371 0.5 L 88.29221204454743 0.5 L 88.29221204454743 3.5 L 95.29221204454743 0 L 88.29221204454743 -3.5 L 88.29221204454743 -0.5 L 73.86876227227371 -0.5 Z"/><text text-anchor="middle" pointer-events="none" font-size="8px" fill="#000000" x="56.64610602227371" y="3" font-family="sans-serif">ORIGIN</text></g><g class="relationship" transform="translate(170.06607566260487 -297.36091780126117) rotate(519.7805375997893)"><path class="outline" fill="#A5ABB6" stroke="none" d="M 25 0.5 L 53.11098142941691 0.5 L 53.11098142941691 -0.5 L 25 -0.5 Z M 112.29848142941691 0.5 L 140.40946285883382 0.5 L 140.40946285883382 3.5 L 147.40946285883382 0 L 140.40946285883382 -3.5 L 140.40946285883382 -0.5 L 112.29848142941691 -0.5 Z"/><text text-anchor="middle" pointer-events="none" font-size="8px" fill="#000000" x="82.70473142941691" y="3" transform="rotate(180 82.70473142941691 0)" font-family="sans-serif">DESTINATION</text></g><g class="relationship" transform="translate(-328.8922188066403 -34.670513159903074) rotate(505.41747631153)"><path class="outline" fill="#A5ABB6" stroke="none" d="M 25 0.5 L 33.647763696248035 0.5 L 33.647763696248035 -0.5 L 25 -0.5 Z M 33.647763696248035 0.5 L 42.29552739249607 0.5 L 42.29552739249607 3.5 L 49.29552739249607 0 L 42.29552739249607 -3.5 L 42.29552739249607 -0.5 L 33.647763696248035 -0.5 Z"/><text text-anchor="middle" pointer-events="none" font-size="8px" fill="#000000" x="33.647763696248035" y="3" transform="rotate(180 33.647763696248035 0)" font-family="sans-serif"/></g><g class="relationship" transform="translate(-328.8922188066403 -34.670513159903074) rotate(391.80818984332313)"><path class="outline" fill="#A5ABB6" stroke="none" d="M 25 0.5 L 40.23877222314955 0.5 L 40.23877222314955 -0.5 L 25 -0.5 Z M 74.68408472314955 0.5 L 89.9228569462991 0.5 L 89.9228569462991 3.5 L 96.9228569462991 0 L 89.9228569462991 -3.5 L 89.9228569462991 -0.5 L 74.68408472314955 -0.5 Z"/><text text-anchor="middle" pointer-events="none" font-size="8px" fill="#000000" x="57.46142847314955" y="3" font-family="sans-serif">ORIGIN</text></g><g class="relationship" transform="translate(-285.5596395484528 -75.88261645047518) rotate(501.8171554839982)"><path class="outline" fill="#A5ABB6" stroke="none" d="M 25 0.5 L 33.734616071671724 0.5 L 33.734616071671724 -0.5 L 25 -0.5 Z M 92.92211607167172 0.5 L 101.65673214334345 0.5 L 101.65673214334345 3.5 L 108.65673214334345 0 L 101.65673214334345 -3.5 L 101.65673214334345 -0.5 L 92.92211607167172 -0.5 Z"/><text text-anchor="middle" pointer-events="none" font-size="8px" fill="#000000" x="63.328366071671724" y="3" transform="rotate(180 63.328366071671724 0)" font-family="sans-serif">DESTINATION</text></g><g class="relationship" transform="translate(-285.5596395484528 -75.88261645047518) rotate(417.21508624322155)"><path class="outline" fill="#A5ABB6" stroke="none" d="M 25 0.5 L 39.20911935820713 0.5 L 39.20911935820713 -0.5 L 25 -0.5 Z M 73.65443185820713 0.5 L 87.86355121641427 0.5 L 87.86355121641427 3.5 L 94.86355121641427 0 L 87.86355121641427 -3.5 L 87.86355121641427 -0.5 L 73.65443185820713 -0.5 Z"/><text text-anchor="middle" pointer-events="none" font-size="8px" fill="#000000" x="56.43177560820713" y="3" font-family="sans-serif">ORIGIN</text></g><g class="relationship" transform="translate(-162.97819995094767 -159.1156704915986) rotate(334.9469226377272)"><path class="outline" fill="#A5ABB6" stroke="none" d="M 25 0.5 L 58.53142042146966 0.5 L 58.53142042146966 -0.5 L 25 -0.5 Z M 92.97673292146966 0.5 L 126.50815334293932 0.5 L 126.50815334293932 3.5 L 133.50815334293932 0 L 126.50815334293932 -3.5 L 126.50815334293932 -0.5 L 92.97673292146966 -0.5 Z"/><text text-anchor="middle" pointer-events="none" font-size="8px" fill="#000000" x="75.75407667146966" y="3" font-family="sans-serif">ORIGIN</text></g><g class="relationship" transform="translate(-162.97819995094767 -159.1156704915986) rotate(464.1461941376824)"><path class="outline" fill="#A5ABB6" stroke="none" d="M 25 0.5 L 60.78765359796367 0.5 L 60.78765359796367 -0.5 L 25 -0.5 Z M 119.97515359796367 0.5 L 155.76280719592734 0.5 L 155.76280719592734 3.5 L 162.76280719592734 0 L 155.76280719592734 -3.5 L 155.76280719592734 -0.5 L 119.97515359796367 -0.5 Z"/><text text-anchor="middle" pointer-events="none" font-size="8px" fill="#000000" x="90.38140359796367" y="3" transform="rotate(180 90.38140359796367 0)" font-family="sans-serif">DESTINATION</text></g><g class="relationship" transform="translate(-377.7060854233246 -69.52036999831459) rotate(466.1099313872728)"><path class="outline" fill="#A5ABB6" stroke="none" d="M 25 0.5 L 33.51471597407529 0.5 L 33.51471597407529 -0.5 L 25 -0.5 Z M 33.51471597407529 0.5 L 42.029431948150574 0.5 L 42.029431948150574 3.5 L 49.029431948150574 0 L 42.029431948150574 -3.5 L 42.029431948150574 -0.5 L 33.51471597407529 -0.5 Z"/><text text-anchor="middle" pointer-events="none" font-size="8px" fill="#000000" x="33.51471597407529" y="3" transform="rotate(180 33.51471597407529 0)" font-family="sans-serif"/></g><g class="relationship" transform="translate(-377.7060854233246 -69.52036999831459) rotate(392.9399374789622)"><path class="outline" fill="#A5ABB6" stroke="none" d="M 25 0.5 L 57.812594879633906 0.5 L 57.812594879633906 -0.5 L 25 -0.5 Z M 117.0000948796339 0.5 L 149.8126897592678 0.5 L 149.8126897592678 3.5 L 156.8126897592678 0 L 149.8126897592678 -3.5 L 149.8126897592678 -0.5 L 117.0000948796339 -0.5 Z"/><text text-anchor="middle" pointer-events="none" font-size="8px" fill="#000000" x="87.4063448796339" y="3" font-family="sans-serif">DESTINATION</text></g><g class="relationship" transform="translate(38.192953374887914 44.57483843709199) rotate(305.5980643983071)"><path class="outline" fill="#A5ABB6" stroke="none" d="M 25 0.5 L 99.49015871831816 0.5 L 99.49015871831816 -0.5 L 25 -0.5 Z M 133.93547121831816 0.5 L 208.4256299366363 0.5 L 208.4256299366363 3.5 L 215.4256299366363 0 L 208.4256299366363 -3.5 L 208.4256299366363 -0.5 L 133.93547121831816 -0.5 Z"/><text text-anchor="middle" pointer-events="none" font-size="8px" fill="#000000" x="116.71281496831816" y="3" font-family="sans-serif">ORIGIN</text></g><g class="relationship" transform="translate(38.192953374887914 44.57483843709199) rotate(484.3870237066971)"><path class="outline" fill="#A5ABB6" stroke="none" d="M 25 0.5 L 122.80427276401716 0.5 L 122.80427276401716 -0.5 L 25 -0.5 Z M 181.99177276401716 0.5 L 279.7960455280343 0.5 L 279.7960455280343 3.5 L 286.7960455280343 0 L 279.7960455280343 -3.5 L 279.7960455280343 -0.5 L 181.99177276401716 -0.5 Z"/><text text-anchor="middle" pointer-events="none" font-size="8px" fill="#000000" x="152.39802276401716" y="3" transform="rotate(180 152.39802276401716 0)" font-family="sans-serif">DESTINATION</text></g><g class="relationship" transform="translate(-44.76451911800028 405.089061386661) rotate(221.79322156850446)"><path class="outline" fill="#A5ABB6" stroke="none" d="M 25 0.5 L 27.550422608921664 0.5 L 27.550422608921664 -0.5 L 25 -0.5 Z M 86.73792260892166 0.5 L 89.28834521784333 0.5 L 89.28834521784333 3.5 L 96.28834521784333 0 L 89.28834521784333 -3.5 L 89.28834521784333 -0.5 L 86.73792260892166 -0.5 Z"/><text text-anchor="middle" pointer-events="none" font-size="8px" fill="#000000" x="57.144172608921664" y="3" transform="rotate(180 57.144172608921664 0)" font-family="sans-serif">DESTINATION</text></g><g class="relationship" transform="translate(-44.76451911800028 405.089061386661) rotate(285.39795580482667)"><path class="outline" fill="#A5ABB6" stroke="none" d="M 25 0.5 L 59.54198971463693 0.5 L 59.54198971463693 -0.5 L 25 -0.5 Z M 93.98730221463693 0.5 L 128.52929192927385 0.5 L 128.52929192927385 3.5 L 135.52929192927385 0 L 128.52929192927385 -3.5 L 128.52929192927385 -0.5 L 93.98730221463693 -0.5 Z"/><text text-anchor="middle" pointer-events="none" font-size="8px" fill="#000000" x="76.76464596463693" y="3" font-family="sans-serif">ORIGIN</text></g><g class="relationship" transform="translate(-104.17319953529275 412.2406580651028) rotate(246.69762112987019)"><path class="outline" fill="#A5ABB6" stroke="none" d="M 25 0.5 L 27.116520648965796 0.5 L 27.116520648965796 -0.5 L 25 -0.5 Z M 57.565739398965796 0.5 L 59.68226004793159 0.5 L 59.68226004793159 3.5 L 66.68226004793159 0 L 59.68226004793159 -3.5 L 59.68226004793159 -0.5 L 57.565739398965796 -0.5 Z"/><text text-anchor="middle" pointer-events="none" font-size="8px" fill="#000000" x="42.341130023965796" y="3" transform="rotate(180 42.341130023965796 0)" font-family="sans-serif">DES…</text></g><g class="relationship" transform="translate(-104.17319953529275 412.2406580651028) rotate(301.0084907221177)"><path class="outline" fill="#A5ABB6" stroke="none" d="M 25 0.5 L 74.67204805695296 0.5 L 74.67204805695296 -0.5 L 25 -0.5 Z M 109.11736055695296 0.5 L 158.78940861390592 0.5 L 158.78940861390592 3.5 L 165.78940861390592 0 L 158.78940861390592 -3.5 L 158.78940861390592 -0.5 L 109.11736055695296 -0.5 Z"/><text text-anchor="middle" pointer-events="none" font-size="8px" fill="#000000" x="91.89470430695296" y="3" font-family="sans-serif">ORIGIN</text></g><g class="relationship" transform="translate(-296.90961422015675 219.35241131731442) rotate(392.23033126173834)"><path class="outline" fill="#A5ABB6" stroke="none" d="M 25 0.5 L 60.75518346307253 0.5 L 60.75518346307253 -0.5 L 25 -0.5 Z M 95.20049596307253 0.5 L 130.95567942614505 0.5 L 130.95567942614505 3.5 L 137.95567942614505 0 L 130.95567942614505 -3.5 L 130.95567942614505 -0.5 L 95.20049596307253 -0.5 Z"/><text text-anchor="middle" pointer-events="none" font-size="8px" fill="#000000" x="77.97783971307253" y="3" font-family="sans-serif">ORIGIN</text></g><g class="relationship" transform="translate(-296.90961422015675 219.35241131731442) rotate(294.8904086069412)"><path class="outline" fill="#A5ABB6" stroke="none" d="M 25 0.5 L 59.6438725092148 0.5 L 59.6438725092148 -0.5 L 25 -0.5 Z M 118.8313725092148 0.5 L 153.4752450184296 0.5 L 153.4752450184296 3.5 L 160.4752450184296 0 L 153.4752450184296 -3.5 L 153.4752450184296 -0.5 L 118.8313725092148 -0.5 Z"/><text text-anchor="middle" pointer-events="none" font-size="8px" fill="#000000" x="89.2376225092148" y="3" font-family="sans-serif">DESTINATION</text></g></g><g class="layer nodes"><g class="node" transform="translate(186.87506343915624,-163.1169586454223)"><circle class="outline" cx="0" cy="0" r="40" fill="#4C8EDA" stroke="#2870c2" stroke-width="2px"/><text text-anchor="middle" pointer-events="none" font-family="sans-serif" dy="2.5" font-size="40" fill="#FFFFFF"/><text text-anchor="middle" pointer-events="none" x="0" y="5" font-size="10px" fill="#FFFFFF" font-family="sans-serif"> LAX</text></g><g class="node" transform="translate(584.9993529633293,508.7720237500171)"><circle class="outline" cx="0" cy="0" r="40" fill="#4C8EDA" stroke="#2870c2" stroke-width="2px"/><text text-anchor="middle" pointer-events="none" font-family="sans-serif" dy="2.5" font-size="40" fill="#FFFFFF"/><text text-anchor="middle" pointer-events="none" x="0" y="5" font-size="10px" fill="#FFFFFF" font-family="sans-serif"> DAY</text></g><g class="node" transform="translate(279.1190834843451,-252.7870908826433)"><circle class="outline" cx="0" cy="0" r="25" fill="#ECB5C9" stroke="#da7298" stroke-width="2px"/><text text-anchor="middle" pointer-events="none" font-family="sans-serif" dy="1.5625" font-size="25" fill="#2A2C34"/><text text-anchor="middle" pointer-events="none" x="0" y="5" font-size="10px" fill="#2A2C34" font-family="sans-serif"> 11/29/20…</text></g><g class="node" transform="translate(237.50343146348155,-88.75383062606538)"><circle class="outline" cx="0" cy="0" r="40" fill="#4C8EDA" stroke="#2870c2" stroke-width="2px"/><text text-anchor="middle" pointer-events="none" font-family="sans-serif" dy="2.5" font-size="40" fill="#FFFFFF"/><text text-anchor="middle" pointer-events="none" x="0" y="5" font-size="10px" fill="#FFFFFF" font-family="sans-serif"> EWR</text></g><g class="node" transform="translate(1.0289410755352622,-84.36411220245958)"><circle class="outline" cx="0" cy="0" r="25" fill="#ECB5C9" stroke="#da7298" stroke-width="2px"/><text text-anchor="middle" pointer-events="none" font-family="sans-serif" dy="1.5625" font-size="25" fill="#2A2C34"/><text text-anchor="middle" pointer-events="none" x="0" y="5" font-size="10px" fill="#2A2C34" font-family="sans-serif"> 11/30/20…</text></g><g class="node" transform="translate(-212.53279780324775,37.49841296548651)"><circle class="outline" cx="0" cy="0" r="40" fill="#4C8EDA" stroke="#2870c2" stroke-width="2px"/><text text-anchor="middle" pointer-events="none" font-family="sans-serif" dy="2.5" font-size="40" fill="#FFFFFF"/><text text-anchor="middle" pointer-events="none" x="0" y="5" font-size="10px" fill="#FFFFFF" font-family="sans-serif"> DEN</text></g><g class="node" transform="translate(50.41758072121081,292.5158538291188)"><circle class="outline" cx="0" cy="0" r="25" fill="#ECB5C9" stroke="#da7298" stroke-width="2px"/><text text-anchor="middle" pointer-events="none" font-family="sans-serif" dy="1.5625" font-size="25" fill="#2A2C34"/><text text-anchor="middle" pointer-events="none" x="0" y="5" font-size="10px" fill="#2A2C34" font-family="sans-serif"> 11/29/20…</text></g><g class="node" transform="translate(299.1477348749612,489.31157017656847)"><circle class="outline" cx="0" cy="0" r="40" fill="#4C8EDA" stroke="#2870c2" stroke-width="2px"/><text text-anchor="middle" pointer-events="none" font-family="sans-serif" dy="2.5" font-size="40" fill="#FFFFFF"/><text text-anchor="middle" pointer-events="none" x="0" y="5" font-size="10px" fill="#FFFFFF" font-family="sans-serif"> MSP</text></g><g class="node" transform="translate(472.8544174698789,422.96218116545094)"><circle class="outline" cx="0" cy="0" r="25" fill="#ECB5C9" stroke="#da7298" stroke-width="2px"/><text text-anchor="middle" pointer-events="none" font-family="sans-serif" dy="1.5625" font-size="25" fill="#2A2C34"/><text text-anchor="middle" pointer-events="none" x="0" y="5" font-size="10px" fill="#2A2C34" font-family="sans-serif"> 11/16/20…</text></g><g class="node" transform="translate(465.16430934179317,482.2510951553609)"><circle class="outline" cx="0" cy="0" r="25" fill="#ECB5C9" stroke="#da7298" stroke-width="2px"/><text text-anchor="middle" pointer-events="none" font-family="sans-serif" dy="1.5625" font-size="25" fill="#2A2C34"/><text text-anchor="middle" pointer-events="none" x="0" y="5" font-size="10px" fill="#2A2C34" font-family="sans-serif"> 11/20/20…</text></g><g class="node" transform="translate(430.67726467513614,591.505294764331)"><circle class="outline" cx="0" cy="0" r="25" fill="#ECB5C9" stroke="#da7298" stroke-width="2px"/><text text-anchor="middle" pointer-events="none" font-family="sans-serif" dy="1.5625" font-size="25" fill="#2A2C34"/><text text-anchor="middle" pointer-events="none" x="0" y="5" font-size="10px" fill="#2A2C34" font-family="sans-serif"> 11/11/20…</text></g><g class="node" transform="translate(480.44397372722824,558.3158691511252)"><circle class="outline" cx="0" cy="0" r="25" fill="#ECB5C9" stroke="#da7298" stroke-width="2px"/><text text-anchor="middle" pointer-events="none" font-family="sans-serif" dy="1.5625" font-size="25" fill="#2A2C34"/><text text-anchor="middle" pointer-events="none" x="0" y="5" font-size="10px" fill="#2A2C34" font-family="sans-serif"> 11/23/20…</text></g><g class="node" transform="translate(428.22544760917725,529.4101747211151)"><circle class="outline" cx="0" cy="0" r="25" fill="#ECB5C9" stroke="#da7298" stroke-width="2px"/><text text-anchor="middle" pointer-events="none" font-family="sans-serif" dy="1.5625" font-size="25" fill="#2A2C34"/><text text-anchor="middle" pointer-events="none" x="0" y="5" font-size="10px" fill="#2A2C34" font-family="sans-serif"> 11/25/20…</text></g><g class="node" transform="translate(350.9962644287594,-165.55396254426904)"><circle class="outline" cx="0" cy="0" r="25" fill="#ECB5C9" stroke="#da7298" stroke-width="2px"/><text text-anchor="middle" pointer-events="none" font-family="sans-serif" dy="1.5625" font-size="25" fill="#2A2C34"/><text text-anchor="middle" pointer-events="none" x="0" y="5" font-size="10px" fill="#2A2C34" font-family="sans-serif"> 11/29/20…</text></g><g class="node" transform="translate(330.20955307567175,-221.6944685081281)"><circle class="outline" cx="0" cy="0" r="25" fill="#ECB5C9" stroke="#da7298" stroke-width="2px"/><text text-anchor="middle" pointer-events="none" font-family="sans-serif" dy="1.5625" font-size="25" fill="#2A2C34"/><text text-anchor="middle" pointer-events="none" x="0" y="5" font-size="10px" fill="#2A2C34" font-family="sans-serif"> 11/30/20…</text></g><g class="node" transform="translate(333.761094921847,-7.72297023487297)"><circle class="outline" cx="0" cy="0" r="25" fill="#ECB5C9" stroke="#da7298" stroke-width="2px"/><text text-anchor="middle" pointer-events="none" font-family="sans-serif" dy="1.5625" font-size="25" fill="#2A2C34"/><text text-anchor="middle" pointer-events="none" x="0" y="5" font-size="10px" fill="#2A2C34" font-family="sans-serif"> 11/29/20…</text></g><g class="node" transform="translate(352.86596451475435,213.87544622204223)"><circle class="outline" cx="0" cy="0" r="40" fill="#4C8EDA" stroke="#2870c2" stroke-width="2px"/><text text-anchor="middle" pointer-events="none" font-family="sans-serif" dy="2.5" font-size="40" fill="#FFFFFF"/><text text-anchor="middle" pointer-events="none" x="0" y="5" font-size="10px" fill="#FFFFFF" font-family="sans-serif"> BOS</text></g><g class="node" transform="translate(209.5178088115702,290.480659285152)"><circle class="outline" cx="0" cy="0" r="25" fill="#ECB5C9" stroke="#da7298" stroke-width="2px"/><text text-anchor="middle" pointer-events="none" font-family="sans-serif" dy="1.5625" font-size="25" fill="#2A2C34"/><text text-anchor="middle" pointer-events="none" x="0" y="5" font-size="10px" fill="#2A2C34" font-family="sans-serif"> 11/29/20…</text></g><g class="node" transform="translate(1.8423204527326233,235.86041478561947)"><circle class="outline" cx="0" cy="0" r="40" fill="#4C8EDA" stroke="#2870c2" stroke-width="2px"/><text text-anchor="middle" pointer-events="none" font-family="sans-serif" dy="2.5" font-size="40" fill="#FFFFFF"/><text text-anchor="middle" pointer-events="none" x="0" y="5" font-size="10px" fill="#FFFFFF" font-family="sans-serif"> ORD</text></g><g class="node" transform="translate(93.9410264067674,427.4018475254563)"><circle class="outline" cx="0" cy="0" r="25" fill="#ECB5C9" stroke="#da7298" stroke-width="2px"/><text text-anchor="middle" pointer-events="none" font-family="sans-serif" dy="1.5625" font-size="25" fill="#2A2C34"/><text text-anchor="middle" pointer-events="none" x="0" y="5" font-size="10px" fill="#2A2C34" font-family="sans-serif"> 11/30/20…</text></g><g class="node" transform="translate(148.82817102863675,450.24213660571695)"><circle class="outline" cx="0" cy="0" r="25" fill="#ECB5C9" stroke="#da7298" stroke-width="2px"/><text text-anchor="middle" pointer-events="none" font-family="sans-serif" dy="1.5625" font-size="25" fill="#2A2C34"/><text text-anchor="middle" pointer-events="none" x="0" y="5" font-size="10px" fill="#2A2C34" font-family="sans-serif"> 11/29/20…</text></g><g class="node" transform="translate(149.3763361141195,390.6451571283636)"><circle class="outline" cx="0" cy="0" r="25" fill="#ECB5C9" stroke="#da7298" stroke-width="2px"/><text text-anchor="middle" pointer-events="none" font-family="sans-serif" dy="1.5625" font-size="25" fill="#2A2C34"/><text text-anchor="middle" pointer-events="none" x="0" y="5" font-size="10px" fill="#2A2C34" font-family="sans-serif"> 11/29/20…</text></g><g class="node" transform="translate(174.98742635294107,104.82918894543005)"><circle class="outline" cx="0" cy="0" r="25" fill="#ECB5C9" stroke="#da7298" stroke-width="2px"/><text text-anchor="middle" pointer-events="none" font-family="sans-serif" dy="1.5625" font-size="25" fill="#2A2C34"/><text text-anchor="middle" pointer-events="none" x="0" y="5" font-size="10px" fill="#2A2C34" font-family="sans-serif"> 11/30/20…</text></g><g class="node" transform="translate(155.76771812434615,316.13371863350056)"><circle class="outline" cx="0" cy="0" r="25" fill="#ECB5C9" stroke="#da7298" stroke-width="2px"/><text text-anchor="middle" pointer-events="none" font-family="sans-serif" dy="1.5625" font-size="25" fill="#2A2C34"/><text text-anchor="middle" pointer-events="none" x="0" y="5" font-size="10px" fill="#2A2C34" font-family="sans-serif"> 11/30/20…</text></g><g class="node" transform="translate(116.38807325776237,93.03648008199043)"><circle class="outline" cx="0" cy="0" r="25" fill="#ECB5C9" stroke="#da7298" stroke-width="2px"/><text text-anchor="middle" pointer-events="none" font-family="sans-serif" dy="1.5625" font-size="25" fill="#2A2C34"/><text text-anchor="middle" pointer-events="none" x="0" y="5" font-size="10px" fill="#2A2C34" font-family="sans-serif"> 11/30/20…</text></g><g class="node" transform="translate(96.3628902839524,20.220156147138987)"><circle class="outline" cx="0" cy="0" r="25" fill="#ECB5C9" stroke="#da7298" stroke-width="2px"/><text text-anchor="middle" pointer-events="none" font-family="sans-serif" dy="1.5625" font-size="25" fill="#2A2C34"/><text text-anchor="middle" pointer-events="none" x="0" y="5" font-size="10px" fill="#2A2C34" font-family="sans-serif"> 11/29/20…</text></g><g class="node" transform="translate(-127.75663377898533,221.74055482255397)"><circle class="outline" cx="0" cy="0" r="25" fill="#ECB5C9" stroke="#da7298" stroke-width="2px"/><text text-anchor="middle" pointer-events="none" font-family="sans-serif" dy="1.5625" font-size="25" fill="#2A2C34"/><text text-anchor="middle" pointer-events="none" x="0" y="5" font-size="10px" fill="#2A2C34" font-family="sans-serif"> 11/29/20…</text></g><g class="node" transform="translate(-73.84947827727476,111.88787615700491)"><circle class="outline" cx="0" cy="0" r="25" fill="#ECB5C9" stroke="#da7298" stroke-width="2px"/><text text-anchor="middle" pointer-events="none" font-family="sans-serif" dy="1.5625" font-size="25" fill="#2A2C34"/><text text-anchor="middle" pointer-events="none" x="0" y="5" font-size="10px" fill="#2A2C34" font-family="sans-serif"> 11/29/20…</text></g><g class="node" transform="translate(-186.89492375426747,229.0152843883706)"><circle class="outline" cx="0" cy="0" r="25" fill="#ECB5C9" stroke="#da7298" stroke-width="2px"/><text text-anchor="middle" pointer-events="none" font-family="sans-serif" dy="1.5625" font-size="25" fill="#2A2C34"/><text text-anchor="middle" pointer-events="none" x="0" y="5" font-size="10px" fill="#2A2C34" font-family="sans-serif"> 11/30/20…</text></g><g class="node" transform="translate(-163.44065329043752,173.90092881285125)"><circle class="outline" cx="0" cy="0" r="25" fill="#ECB5C9" stroke="#da7298" stroke-width="2px"/><text text-anchor="middle" pointer-events="none" font-family="sans-serif" dy="1.5625" font-size="25" fill="#2A2C34"/><text text-anchor="middle" pointer-events="none" x="0" y="5" font-size="10px" fill="#2A2C34" font-family="sans-serif"> 11/29/20…</text></g><g class="node" transform="translate(-132.7421554319674,122.22827425479242)"><circle class="outline" cx="0" cy="0" r="25" fill="#ECB5C9" stroke="#da7298" stroke-width="2px"/><text text-anchor="middle" pointer-events="none" font-family="sans-serif" dy="1.5625" font-size="25" fill="#2A2C34"/><text text-anchor="middle" pointer-events="none" x="0" y="5" font-size="10px" fill="#2A2C34" font-family="sans-serif"> 11/29/20…</text></g><g class="node" transform="translate(-97.29069957969368,170.006683029893)"><circle class="outline" cx="0" cy="0" r="25" fill="#ECB5C9" stroke="#da7298" stroke-width="2px"/><text text-anchor="middle" pointer-events="none" font-family="sans-serif" dy="1.5625" font-size="25" fill="#2A2C34"/><text text-anchor="middle" pointer-events="none" x="0" y="5" font-size="10px" fill="#2A2C34" font-family="sans-serif"> 11/29/20…</text></g><g class="node" transform="translate(153.1942660008467,38.5779782532283)"><circle class="outline" cx="0" cy="0" r="25" fill="#ECB5C9" stroke="#da7298" stroke-width="2px"/><text text-anchor="middle" pointer-events="none" font-family="sans-serif" dy="1.5625" font-size="25" fill="#2A2C34"/><text text-anchor="middle" pointer-events="none" x="0" y="5" font-size="10px" fill="#2A2C34" font-family="sans-serif"> 11/30/20…</text></g><g class="node" transform="translate(361.7694199859787,-68.04281729486722)"><circle class="outline" cx="0" cy="0" r="25" fill="#ECB5C9" stroke="#da7298" stroke-width="2px"/><text text-anchor="middle" pointer-events="none" font-family="sans-serif" dy="1.5625" font-size="25" fill="#2A2C34"/><text text-anchor="middle" pointer-events="none" x="0" y="5" font-size="10px" fill="#2A2C34" font-family="sans-serif"> 11/30/20…</text></g><g class="node" transform="translate(361.95495750989534,124.37711815326202)"><circle class="outline" cx="0" cy="0" r="40" fill="#4C8EDA" stroke="#2870c2" stroke-width="2px"/><text text-anchor="middle" pointer-events="none" font-family="sans-serif" dy="2.5" font-size="40" fill="#FFFFFF"/><text text-anchor="middle" pointer-events="none" x="0" y="5" font-size="10px" fill="#FFFFFF" font-family="sans-serif"> IAH</text></g><g class="node" transform="translate(228.70858763433614,233.65786020460922)"><circle class="outline" cx="0" cy="0" r="25" fill="#ECB5C9" stroke="#da7298" stroke-width="2px"/><text text-anchor="middle" pointer-events="none" font-family="sans-serif" dy="1.5625" font-size="25" fill="#2A2C34"/><text text-anchor="middle" pointer-events="none" x="0" y="5" font-size="10px" fill="#2A2C34" font-family="sans-serif"> 11/30/20…</text></g><g class="node" transform="translate(-114.73406180678435,-115.23607184528052)"><circle class="outline" cx="0" cy="0" r="25" fill="#ECB5C9" stroke="#da7298" stroke-width="2px"/><text text-anchor="middle" pointer-events="none" font-family="sans-serif" dy="1.5625" font-size="25" fill="#2A2C34"/><text text-anchor="middle" pointer-events="none" x="0" y="5" font-size="10px" fill="#2A2C34" font-family="sans-serif"> 11/29/20…</text></g><g class="node" transform="translate(-402.41007780536063,16.012971532334625)"><circle class="outline" cx="0" cy="0" r="40" fill="#4C8EDA" stroke="#2870c2" stroke-width="2px"/><text text-anchor="middle" pointer-events="none" font-family="sans-serif" dy="2.5" font-size="40" fill="#FFFFFF"/><text text-anchor="middle" pointer-events="none" x="0" y="5" font-size="10px" fill="#FFFFFF" font-family="sans-serif"> SFO</text></g><g class="node" transform="translate(-245.5149233792169,187.92651472032264)"><circle class="outline" cx="0" cy="0" r="25" fill="#ECB5C9" stroke="#da7298" stroke-width="2px"/><text text-anchor="middle" pointer-events="none" font-family="sans-serif" dy="1.5625" font-size="25" fill="#2A2C34"/><text text-anchor="middle" pointer-events="none" x="0" y="5" font-size="10px" fill="#2A2C34" font-family="sans-serif"> 11/30/20…</text></g><g class="node" transform="translate(203.3139971859326,179.31089805024106)"><circle class="outline" cx="0" cy="0" r="25" fill="#ECB5C9" stroke="#da7298" stroke-width="2px"/><text text-anchor="middle" pointer-events="none" font-family="sans-serif" dy="1.5625" font-size="25" fill="#2A2C34"/><text text-anchor="middle" pointer-events="none" x="0" y="5" font-size="10px" fill="#2A2C34" font-family="sans-serif"> 11/29/20…</text></g><g class="node" transform="translate(169.16334492335815,228.23539164008068)"><circle class="outline" cx="0" cy="0" r="25" fill="#ECB5C9" stroke="#da7298" stroke-width="2px"/><text text-anchor="middle" pointer-events="none" font-family="sans-serif" dy="1.5625" font-size="25" fill="#2A2C34"/><text text-anchor="middle" pointer-events="none" x="0" y="5" font-size="10px" fill="#2A2C34" font-family="sans-serif"> 11/29/20…</text></g><g class="node" transform="translate(125.73439710812501,-337.47369193826256)"><circle class="outline" cx="0" cy="0" r="25" fill="#ECB5C9" stroke="#da7298" stroke-width="2px"/><text text-anchor="middle" pointer-events="none" font-family="sans-serif" dy="1.5625" font-size="25" fill="#2A2C34"/><text text-anchor="middle" pointer-events="none" x="0" y="5" font-size="10px" fill="#2A2C34" font-family="sans-serif"> 11/4/2015</text></g><g class="node" transform="translate(-5.794405867972582,-232.58902725551565)"><circle class="outline" cx="0" cy="0" r="40" fill="#4C8EDA" stroke="#2870c2" stroke-width="2px"/><text text-anchor="middle" pointer-events="none" font-family="sans-serif" dy="2.5" font-size="40" fill="#FFFFFF"/><text text-anchor="middle" pointer-events="none" x="0" y="5" font-size="10px" fill="#FFFFFF" font-family="sans-serif"> SMF</text></g><g class="node" transform="translate(-19.96147977206375,29.26771229779733)"><circle class="outline" cx="0" cy="0" r="25" fill="#ECB5C9" stroke="#da7298" stroke-width="2px"/><text text-anchor="middle" pointer-events="none" font-family="sans-serif" dy="1.5625" font-size="25" fill="#2A2C34"/><text text-anchor="middle" pointer-events="none" x="0" y="5" font-size="10px" fill="#2A2C34" font-family="sans-serif"> 11/29/20…</text></g><g class="node" transform="translate(-22.823174102756266,-29.79821898295257)"><circle class="outline" cx="0" cy="0" r="25" fill="#ECB5C9" stroke="#da7298" stroke-width="2px"/><text text-anchor="middle" pointer-events="none" font-family="sans-serif" dy="1.5625" font-size="25" fill="#2A2C34"/><text text-anchor="middle" pointer-events="none" x="0" y="5" font-size="10px" fill="#2A2C34" font-family="sans-serif"> 11/30/20…</text></g><g class="node" transform="translate(118.05305541403025,-267.6992586676834)"><circle class="outline" cx="0" cy="0" r="25" fill="#ECB5C9" stroke="#da7298" stroke-width="2px"/><text text-anchor="middle" pointer-events="none" font-family="sans-serif" dy="1.5625" font-size="25" fill="#2A2C34"/><text text-anchor="middle" pointer-events="none" x="0" y="5" font-size="10px" fill="#2A2C34" font-family="sans-serif"> 11/2/2015</text></g><g class="node" transform="translate(-334.22644557506464,-110.53735924189408)"><circle class="outline" cx="0" cy="0" r="25" fill="#ECB5C9" stroke="#da7298" stroke-width="2px"/><text text-anchor="middle" pointer-events="none" font-family="sans-serif" dy="1.5625" font-size="25" fill="#2A2C34"/><text text-anchor="middle" pointer-events="none" x="0" y="5" font-size="10px" fill="#2A2C34" font-family="sans-serif"> 11/30/20…</text></g><g class="node" transform="translate(-343.7183625184592,81.02535781725082)"><circle class="outline" cx="0" cy="0" r="25" fill="#ECB5C9" stroke="#da7298" stroke-width="2px"/><text text-anchor="middle" pointer-events="none" font-family="sans-serif" dy="1.5625" font-size="25" fill="#2A2C34"/><text text-anchor="middle" pointer-events="none" x="0" y="5" font-size="10px" fill="#2A2C34" font-family="sans-serif"> 11/29/20…</text></g><g class="node" transform="translate(-385.7759260690462,123.62597521612511)"><circle class="outline" cx="0" cy="0" r="25" fill="#ECB5C9" stroke="#da7298" stroke-width="2px"/><text text-anchor="middle" pointer-events="none" font-family="sans-serif" dy="1.5625" font-size="25" fill="#2A2C34"/><text text-anchor="middle" pointer-events="none" x="0" y="5" font-size="10px" fill="#2A2C34" font-family="sans-serif"> 11/30/20…</text></g><g class="node" transform="translate(-226.80103143943572,131.09158576560966)"><circle class="outline" cx="0" cy="0" r="25" fill="#ECB5C9" stroke="#da7298" stroke-width="2px"/><text text-anchor="middle" pointer-events="none" font-family="sans-serif" dy="1.5625" font-size="25" fill="#2A2C34"/><text text-anchor="middle" pointer-events="none" x="0" y="5" font-size="10px" fill="#2A2C34" font-family="sans-serif"> 11/29/20…</text></g><g class="node" transform="translate(73.80197110304228,-307.9745233973387)"><circle class="outline" cx="0" cy="0" r="25" fill="#ECB5C9" stroke="#da7298" stroke-width="2px"/><text text-anchor="middle" pointer-events="none" font-family="sans-serif" dy="1.5625" font-size="25" fill="#2A2C34"/><text text-anchor="middle" pointer-events="none" x="0" y="5" font-size="10px" fill="#2A2C34" font-family="sans-serif"> 11/1/2015</text></g><g class="node" transform="translate(170.06607566260487,-297.36091780126117)"><circle class="outline" cx="0" cy="0" r="25" fill="#ECB5C9" stroke="#da7298" stroke-width="2px"/><text text-anchor="middle" pointer-events="none" font-family="sans-serif" dy="1.5625" font-size="25" fill="#2A2C34"/><text text-anchor="middle" pointer-events="none" x="0" y="5" font-size="10px" fill="#2A2C34" font-family="sans-serif"> 11/3/2015</text></g><g class="node" transform="translate(-328.8922188066403,-34.670513159903074)"><circle class="outline" cx="0" cy="0" r="25" fill="#ECB5C9" stroke="#da7298" stroke-width="2px"/><text text-anchor="middle" pointer-events="none" font-family="sans-serif" dy="1.5625" font-size="25" fill="#2A2C34"/><text text-anchor="middle" pointer-events="none" x="0" y="5" font-size="10px" fill="#2A2C34" font-family="sans-serif"> 11/29/20…</text></g><g class="node" transform="translate(-285.5596395484528,-75.88261645047518)"><circle class="outline" cx="0" cy="0" r="25" fill="#ECB5C9" stroke="#da7298" stroke-width="2px"/><text text-anchor="middle" pointer-events="none" font-family="sans-serif" dy="1.5625" font-size="25" fill="#2A2C34"/><text text-anchor="middle" pointer-events="none" x="0" y="5" font-size="10px" fill="#2A2C34" font-family="sans-serif"> 11/29/20…</text></g><g class="node" transform="translate(-162.97819995094767,-159.1156704915986)"><circle class="outline" cx="0" cy="0" r="25" fill="#ECB5C9" stroke="#da7298" stroke-width="2px"/><text text-anchor="middle" pointer-events="none" font-family="sans-serif" dy="1.5625" font-size="25" fill="#2A2C34"/><text text-anchor="middle" pointer-events="none" x="0" y="5" font-size="10px" fill="#2A2C34" font-family="sans-serif"> 11/30/20…</text></g><g class="node" transform="translate(-377.7060854233246,-69.52036999831459)"><circle class="outline" cx="0" cy="0" r="25" fill="#ECB5C9" stroke="#da7298" stroke-width="2px"/><text text-anchor="middle" pointer-events="none" font-family="sans-serif" dy="1.5625" font-size="25" fill="#2A2C34"/><text text-anchor="middle" pointer-events="none" x="0" y="5" font-size="10px" fill="#2A2C34" font-family="sans-serif"> 11/30/20…</text></g><g class="node" transform="translate(38.192953374887914,44.57483843709199)"><circle class="outline" cx="0" cy="0" r="25" fill="#ECB5C9" stroke="#da7298" stroke-width="2px"/><text text-anchor="middle" pointer-events="none" font-family="sans-serif" dy="1.5625" font-size="25" fill="#2A2C34"/><text text-anchor="middle" pointer-events="none" x="0" y="5" font-size="10px" fill="#2A2C34" font-family="sans-serif"> 11/29/20…</text></g><g class="node" transform="translate(-146.37495578751043,314.2604744657499)"><circle class="outline" cx="0" cy="0" r="40" fill="#4C8EDA" stroke="#2870c2" stroke-width="2px"/><text text-anchor="middle" pointer-events="none" font-family="sans-serif" dy="2.5" font-size="40" fill="#FFFFFF"/><text text-anchor="middle" pointer-events="none" x="0" y="5" font-size="10px" fill="#FFFFFF" font-family="sans-serif"> LAS</text></g><g class="node" transform="translate(-44.76451911800028,405.089061386661)"><circle class="outline" cx="0" cy="0" r="25" fill="#ECB5C9" stroke="#da7298" stroke-width="2px"/><text text-anchor="middle" pointer-events="none" font-family="sans-serif" dy="1.5625" font-size="25" fill="#2A2C34"/><text text-anchor="middle" pointer-events="none" x="0" y="5" font-size="10px" fill="#2A2C34" font-family="sans-serif"> 11/29/20…</text></g><g class="node" transform="translate(-104.17319953529275,412.2406580651028)"><circle class="outline" cx="0" cy="0" r="25" fill="#ECB5C9" stroke="#da7298" stroke-width="2px"/><text text-anchor="middle" pointer-events="none" font-family="sans-serif" dy="1.5625" font-size="25" fill="#2A2C34"/><text text-anchor="middle" pointer-events="none" x="0" y="5" font-size="10px" fill="#2A2C34" font-family="sans-serif"> 11/29/20…</text></g><g class="node" transform="translate(-296.90961422015675,219.35241131731442)"><circle class="outline" cx="0" cy="0" r="25" fill="#ECB5C9" stroke="#da7298" stroke-width="2px"/><text text-anchor="middle" pointer-events="none" font-family="sans-serif" dy="1.5625" font-size="25" fill="#2A2C34"/><text text-anchor="middle" pointer-events="none" x="0" y="5" font-size="10px" fill="#2A2C34" font-family="sans-serif"> 11/29/20…</text></g></g></svg>